<?xml version="1.0" standalone="no"?><!DOCTYPE svg PUBLIC "-//W3C//DTD SVG 1.1//EN" "http://www.w3.org/Graphics/SVG/1.1/DTD/svg11.dtd"><svg xmlns="http://www.w3.org/2000/svg" width="800" height="600" viewBox="0 0 800 600"><g class="sankey" transform="translate(100,10)"><g class="groups"><g class="group" transform="translate(0,59)" style="display: inline;"><rect x="-10" y="-20" width="21" height="502" style="fill: rgb(238, 238, 238); stroke: rgb(187, 187, 187); stroke-width: 0.5;"/><text x="-10" y="-25" style="fill: rgb(153, 153, 153);">1st rating by AI</text></g><g class="group" transform="translate(479,59)" style="display: inline;"><rect x="-10" y="-20" width="21" height="502" style="fill: rgb(238, 238, 238); stroke: rgb(187, 187, 187); stroke-width: 0.5;"/><text x="-10" y="-25" style="fill: rgb(153, 153, 153);">Result</text></g></g><g class="links"><g class="link" style="opacity: 0.8;"><path d="M1,217.0228264664266 A251.57515262665038 251.57515262665038 0.3720371963294897 0 0 92.45109358297209,199.81225073142366 L387.5489064170279,84.6625209576516 A251.57515262665038 251.57515262665038 0.3720371963294897 0 1 479,67.45194522264863 L479,67.45194522264863 A251.57515262665038 251.57515262665038 0.3720371963294897 0 0 387.5489064170279,84.6625209576516 L92.45109358297209,199.81225073142366 A251.57515262665038 251.57515262665038 0.3720371963294897 0 1 1,217.0228264664266 Z" style="fill: rgb(174, 199, 232);"/><title>sR_2 → R_0 : sR_0 to R_0 (99.96%)
b
0.00</title><text class="label" dy="0.35em" x="5" y="217.0228264664266"/></g><g class="link" style="opacity: 0.8;"><path d="M1,217.03956659474704 A601.3160526556937 601.3160526556937 0.14753727004929607 0 1 89.39502653745515,223.57220113518463 L390.6049734625449,268.3371700984407 A601.3160526556937 601.3160526556937 0.14753727004929607 0 0 479,274.8698046388783 L479,274.8698046388783 A601.3160526556937 601.3160526556937 0.14753727004929607 0 1 390.6049734625449,268.3371700984407 L89.39502653745515,223.57220113518463 A601.3160526556937 601.3160526556937 0.14753727004929607 0 0 1,217.03956659474704 Z" style="fill: rgb(174, 199, 232);"/><title>sR_2 → R_3 : sR_3 to R_3 (2.55%)
b
0.00</title><text class="label" dy="0.35em" x="5" y="217.03956659474704"/></g><g class="link" style="opacity: 0.8;"><path d="M1,217.0406583422462 A184.4366489593041 184.4366489593041 0.5475063490909751 0 1 97.01028802968325,244.00063578543387 L382.6399719231423,418.1431799249437 A185.10850281613014 185.10850281613014 0.5475063490909751 0 0 479,445.2013654245418 L479,445.2013654245418 A185.10850281613014 185.10850281613014 0.5475063490909751 0 1 382.6399719231423,418.1431799249437 L97.01028802968325,244.00063578543387 A184.4366489593041 184.4366489593041 0.5475063490909751 0 0 1,217.0406583422462 Z" style="fill: rgb(174, 199, 232);"/><title>sR_2 → R_6 : sR_6 to R_6 (32.24%)
b
0.00</title><text class="label" dy="0.35em" x="5" y="217.0406583422462"/></g><g class="link" style="opacity: 0.8;"><path d="M1,217.0406583422462 A162.13213455268848 162.13213455268848 0.6677794140055338 0 1 101.39933758762272,251.8668540445509 L378.6006624123773,470.4806095546137 A162.13213455268848 162.13213455268848 0.6677794140055338 0 0 479,505.30680525691844 L479,505.30680525691844 A162.13213455268848 162.13213455268848 0.6677794140055338 0 1 378.6006624123773,470.4806095546137 L101.39933758762272,251.8668540445509 A162.13213455268848 162.13213455268848 0.6677794140055338 0 0 1,217.0406583422462 Z" style="fill: rgb(174, 199, 232);"/><title>sR_2 → R_88 : sR_88 to R_88 (99.71%)
b
0.00</title><text class="label" dy="0.35em" x="5" y="217.0406583422462"/></g><g class="link" style="opacity: 0.8;"><path d="M1,217.0406583422462 A156.68458528571082 156.68458528571082 0.7117092922287898 0 1 103.3352590734018,255.07637504281237 L376.6647409265982,490.82445820108404 A156.68458528571082 156.68458528571082 0.7117092922287898 0 0 479,528.8601749016502 L479,528.8601749016502 A156.68458528571082 156.68458528571082 0.7117092922287898 0 1 376.6647409265982,490.82445820108404 L103.3352590734018,255.07637504281237 A156.68458528571082 156.68458528571082 0.7117092922287898 0 0 1,217.0406583422462 Z" style="fill: rgb(174, 199, 232);"/><title>sR_2 → R_99 : sR_99 to R_99 (22.07%)
b
0.00</title><text class="label" dy="0.35em" x="5" y="217.0406583422462"/></g><g class="link" style="opacity: 0.8;"><path d="M1,239.1656583422462 A225.34857110711232 225.34857110711232 0.42326422559773236 0 0 93.55940250804005,219.27933561028402 L386.4405974919599,87.33826795461081 A225.34857110711232 225.34857110711232 0.42326422559773236 0 1 479,67.45194522264863 L479,67.45194522264863 A225.34857110711232 225.34857110711232 0.42326422559773236 0 0 386.4405974919599,87.33826795461081 L93.55940250804005,219.27933561028402 A225.34857110711232 225.34857110711232 0.42326422559773236 0 1 1,239.1656583422462 Z" style="fill: rgb(255, 127, 14);"/><title>sR_3 → R_0 : sR_0 to R_0 (99.96%)
c
0.00</title><text class="label" dy="0.35em" x="5" y="239.1656583422462"/></g><g class="link" style="opacity: 0.8;"><path d="M1,239.36581205042518 A168.76409777600466 168.76409777600466 0.6244133886446721 0 1 99.66311190809323,271.21055017718254 L380.33688809190676,473.46206713016113 A168.76409777600466 168.76409777600466 0.6244133886446721 0 0 479,505.30680525691844 L479,505.30680525691844 A168.76409777600466 168.76409777600466 0.6244133886446721 0 1 380.33688809190676,473.46206713016113 L99.66311190809323,271.21055017718254 A168.76409777600466 168.76409777600466 0.6244133886446721 0 0 1,239.36581205042518 Z" style="fill: rgb(255, 127, 14);"/><title>sR_3 → R_88 : sR_88 to R_88 (99.71%)
c
0.00</title><text class="label" dy="0.35em" x="5" y="239.36581205042518"/></g><g class="link" style="opacity: 0.8;"><path d="M1,239.36581205042518 A161.81195190480818 161.81195190480818 0.6701163612824931 0 1 101.49771228848644,274.3577434378696 L378.50228771151353,493.8682435142058 A161.81195190480818 161.81195190480818 0.6701163612824931 0 0 479,528.8601749016502 L479,528.8601749016502 A161.81195190480818 161.81195190480818 0.6701163612824931 0 1 378.50228771151353,493.8682435142058 L101.49771228848644,274.3577434378696 A161.81195190480818 161.81195190480818 0.6701163612824931 0 0 1,239.36581205042518 Z" style="fill: rgb(255, 127, 14);"/><title>sR_3 → R_99 : sR_99 to R_99 (22.07%)
c
0.00</title><text class="label" dy="0.35em" x="5" y="239.36581205042518"/></g><g class="link" style="opacity: 0.8;"><path d="M1,507.7344877792129 A144.03894790642008 144.03894790642008 0.9120562654142788 0 0 114.9008281215268,451.8648081425182 L365.0991718784732,128.64789699190246 A144.03894790642008 144.03894790642008 0.9120562654142788 0 1 479,72.77821735520776 L479,72.77821735520776 A144.03894790642008 144.03894790642008 0.9120562654142788 0 0 365.0991718784732,128.64789699190246 L114.9008281215268,451.8648081425182 A144.03894790642008 144.03894790642008 0.9120562654142788 0 1 1,507.7344877792129 Z" style="fill: rgb(255, 152, 150);"/><title>sR_88 → R_0 : sR_0 to R_0 (99.96%)
j
0.00</title><text class="label" dy="0.35em" x="5" y="507.7344877792129"/></g><g class="link" style="opacity: 0.8;"><path d="M1,507.735215610879 A172.5447139498409 172.5447139498409 0.603123774280595 0 0 98.87044624621967,477.2927678765993 L381.1295537537803,282.89175271671917 A172.5447139498409 172.5447139498409 0.603123774280595 0 1 479,252.44930498243954 L479,252.44930498243954 A172.5447139498409 172.5447139498409 0.603123774280595 0 0 381.1295537537803,282.89175271671917 L98.87044624621967,477.2927678765993 A172.5447139498409 172.5447139498409 0.603123774280595 0 1 1,507.735215610879 Z" style="fill: rgb(255, 152, 150);"/><title>sR_88 → R_2 : sR_2 to R_2 (81.63%)
j
0.00</title><text class="label" dy="0.35em" x="5" y="507.735215610879"/></g><g class="link" style="opacity: 0.8;"><path d="M1,507.735215610879 A182.36529118696944 182.36529118696944 0.5559702516575178 0 0 97.24650470112293,480.2689552876463 L382.75349529887706,302.86920165753315 A182.36529118696944 182.36529118696944 0.5559702516575178 0 1 479,275.40294133430046 L479,275.40294133430046 A182.36529118696944 182.36529118696944 0.5559702516575178 0 0 382.75349529887706,302.86920165753315 L97.24650470112293,480.2689552876463 A182.36529118696944 182.36529118696944 0.5559702516575178 0 1 1,507.735215610879 Z" style="fill: rgb(255, 152, 150);"/><title>sR_88 → R_3 : sR_3 to R_3 (2.55%)
j
0.00</title><text class="label" dy="0.35em" x="5" y="507.735215610879"/></g><g class="link" style="opacity: 0.8;"><path d="M1,507.735215610879 A229.76647289530362 229.76647289530362 0.4135604351355089 0 0 93.33674502754678,488.3649346594081 L386.6632549724532,359.63249464531526 A229.76647289530362 229.76647289530362 0.4135604351355089 0 1 479,340.2622136938444 L479,340.2622136938444 A229.76647289530362 229.76647289530362 0.4135604351355089 0 0 386.6632549724532,359.63249464531526 L93.33674502754678,488.3649346594081 A229.76647289530362 229.76647289530362 0.4135604351355089 0 1 1,507.735215610879 Z" style="fill: rgb(255, 152, 150);"/><title>sR_88 → R_4 : sR_4 to R_4 (18.46%)
j
0.00</title><text class="label" dy="0.35em" x="5" y="507.735215610879"/></g><g class="link" style="opacity: 0.8;"><path d="M1,507.735215610879 A336.90205932323266 336.90205932323266 0.2695219727790725 0 0 90.70714632780253,495.57247554843 L389.29285367219745,413.09009613990514 A336.90205932323266 336.90205932323266 0.2695219727790725 0 1 479,400.9273560774562 L479,400.9273560774562 A336.90205932323266 336.90205932323266 0.2695219727790725 0 0 389.29285367219745,413.09009613990514 L90.70714632780253,495.57247554843 A336.90205932323266 336.90205932323266 0.2695219727790725 0 1 1,507.735215610879 Z" style="fill: rgb(255, 152, 150);"/><title>sR_88 → R_5 : sR_5 to R_5 (33.14%)
j
0.00</title><text class="label" dy="0.35em" x="5" y="507.735215610879"/></g><g class="link" style="opacity: 0.8;"><path d="M1,507.735215610879 A1000 1000 0.05929768763869503 0 0 60.262943170415774,505.9776228280739 L419.7370568295842,484.6366200666238 A1000 1000 0.05929768763869503 0 1 479,482.8790272838187 L479,482.8790272838187 A1000 1000 0.05929768763869503 0 0 419.7370568295842,484.6366200666238 L60.262943170415774,505.9776228280739 A1000 1000 0.05929768763869503 0 1 1,507.735215610879 Z" style="fill: rgb(255, 152, 150);"/><title>sR_88 → R_6 : sR_6 to R_6 (32.24%)
j
0.00</title><text class="label" dy="0.35em" x="5" y="507.735215610879"/></g><g class="link" style="opacity: 0.8;"><path d="M1,507.98777319901757 A1000 1000 0.05372770304057006 0 1 54.70185778158338,509.430759067723 L425.2981422184166,529.3612274131123 A1000 1000 0.05372770304057006 0 0 479,530.8042132818176 L479,530.8042132818176 A1000 1000 0.05372770304057006 0 1 425.2981422184166,529.3612274131123 L54.70185778158338,509.430759067723 A1000 1000 0.05372770304057006 0 0 1,507.98777319901757 Z" style="fill: rgb(255, 152, 150);"/><title>sR_88 → R_99 : sR_99 to R_99 (22.07%)
j
0.00</title><text class="label" dy="0.35em" x="5" y="507.98777319901757"/></g><g class="link" style="opacity: 0.8;"><path d="M1,65.83907025055913 A1000 1000 0.07262398247572044 0 1 73.56015988901915,68.47503280140388 L406.43984011098087,92.6926724132016 A1000 1000 0.07262398247572044 0 0 479,95.32863496404636 L479,95.32863496404636 A1000 1000 0.07262398247572044 0 1 406.43984011098087,92.6926724132016 L73.56015988901915,68.47503280140388 A1000 1000 0.07262398247572044 0 0 1,65.83907025055913 Z" style="fill: rgb(148, 103, 189);"/><title>sR_0 → R_1 : sR_1 to R_1 (47.31%)
k
0.00</title><text class="label" dy="0.35em" x="5" y="65.83907025055913"/></g><g class="link" style="opacity: 0.8;"><path d="M1,65.83907025055913 A226.73607332703645 226.73607332703645 0.42016211569841655 0 1 93.4875656153346,85.55993361873186 L386.5124343846654,216.4737770151355 A226.73607332703645 226.73607332703645 0.42016211569841655 0 0 479,236.19464038330824 L479,236.19464038330824 A226.73607332703645 226.73607332703645 0.42016211569841655 0 1 386.5124343846654,216.4737770151355 L93.4875656153346,85.55993361873186 A226.73607332703645 226.73607332703645 0.42016211569841655 0 0 1,65.83907025055913 Z" style="fill: rgb(148, 103, 189);"/><title>sR_0 → R_2 : sR_2 to R_2 (81.63%)
k
0.00</title><text class="label" dy="0.35em" x="5" y="65.83907025055913"/></g><g class="link" style="opacity: 0.8;"><path d="M1,65.83907025055913 A195.49808030751927 195.49808030751927 0.5057014980015513 0 1 95.70342529100948,90.30861305022435 L384.29657470899053,250.1109487519362 A195.49808030751927 195.49808030751927 0.5057014980015513 0 0 479,274.5804915516014 L479,274.5804915516014 A195.49808030751927 195.49808030751927 0.5057014980015513 0 1 384.29657470899053,250.1109487519362 L95.70342529100948,90.30861305022435 A195.49808030751927 195.49808030751927 0.5057014980015513 0 0 1,65.83907025055913 Z" style="fill: rgb(148, 103, 189);"/><title>sR_0 → R_3 : sR_3 to R_3 (2.55%)
k
0.00</title><text class="label" dy="0.35em" x="5" y="65.83907025055913"/></g><g class="link" style="opacity: 0.8;"><path d="M1,65.83907025055913 A182.6782553892974 182.6782553892974 0.5546240889923417 0 1 97.2027126551512,93.22282132670392 L382.79728734484877,270.14455417398875 A182.6782553892974 182.6782553892974 0.5546240889923417 0 0 479,297.52830525013354 L479,297.52830525013354 A182.6782553892974 182.6782553892974 0.5546240889923417 0 1 382.79728734484877,270.14455417398875 L97.2027126551512,93.22282132670392 A182.6782553892974 182.6782553892974 0.5546240889923417 0 0 1,65.83907025055913 Z" style="fill: rgb(148, 103, 189);"/><title>sR_0 → R_4 : sR_4 to R_4 (18.46%)
k
0.00</title><text class="label" dy="0.35em" x="5" y="65.83907025055913"/></g><g class="link" style="opacity: 0.8;"><path d="M1,65.84016199805829 A143.90995572416406 143.90995572416406 0.9183516122867508 0 1 115.3511261309713,122.37795219389432 L364.6488738690287,448.65438157367083 A143.90995572416406 143.90995572416406 0.9183516122867508 0 0 479,505.19217176950684 L479,505.19217176950684 A143.90995572416406 143.90995572416406 0.9183516122867508 0 1 364.6488738690287,448.65438157367083 L115.3511261309713,122.37795219389432 A143.90995572416406 143.90995572416406 0.9183516122867508 0 0 1,65.84016199805829 Z" style="fill: rgb(148, 103, 189);"/><title>sR_0 → R_88 : sR_88 to R_88 (99.71%)
k
0.00</title><text class="label" dy="0.35em" x="5" y="65.84016199805829"/></g><g class="link" style="opacity: 0.8;"><path d="M1,216.04047638432968 A239.02355421280367 239.02355421280367 0.39668672710597175 0 1 93.35021218609077,234.60156717602143 L387.42251678189933,357.78643640975133 A237.02355421280367 237.02355421280367 0.39668672710597175 0 0 479,376.19221957201034 L479,378.19221957201034 A239.02355421280367 239.02355421280367 0.39668672710597175 0 1 386.6497878139092,359.6311287803186 L92.5774832181007,236.4462595465887 A237.02355421280367 237.02355421280367 0.39668672710597175 0 0 1,218.04047638432968 Z" style="fill: rgb(174, 199, 232);"/><title>sR_2 → R_5 : sR_5 to R_5 (33.14%)
b
1.00</title><text class="label" dy="0.35em" x="5" y="217.04047638432968"/></g><g class="link" style="opacity: 0.8;"><path d="M1,529.5656664532517 A171.59111768245654 171.59111768245654 0.6028750427716111 0 0 98.29439641647858,499.31566838383543 L380.57157756014027,305.0057036919774 A173.59111768245654 173.59111768245654 0.6028750427716111 0 1 479,274.403123292217 L479,276.403123292217 A171.59111768245654 171.59111768245654 0.6028750427716111 0 0 381.7056035835214,306.6531213616332 L99.4284224398597,500.9630860534913 A173.59111768245654 173.59111768245654 0.6028750427716111 0 1 1,531.5656664532517 Z" style="fill: rgb(214, 39, 40);"/><title>sR_99 → R_3 : sR_3 to R_3 (2.55%)
i
1.00</title><text class="label" dy="0.35em" x="5" y="530.5656664532517"/></g><g class="link" style="opacity: 0.8;"><path d="M1,64.83925220847566 A161.0505230403153 161.0505230403153 0.6834665059844154 0 1 102.70094140565027,101.01307810811694 L378.5620279965689,325.6773497125909 A159.0505230403153 159.0505230403153 0.6834665059844154 0 0 479,361.40195228508304 L479,363.40195228508304 A161.0505230403153 161.0505230403153 0.6834665059844154 0 1 377.29905859434973,327.2281263854417 L101.43797200343116,102.56385478096779 A159.0505230403153 159.0505230403153 0.6834665059844154 0 0 1,66.83925220847566 Z" style="fill: rgb(148, 103, 189);"/><title>sR_0 → R_5 : sR_5 to R_5 (33.14%)
k
1.00</title><text class="label" dy="0.35em" x="5" y="65.83925220847566"/></g><g class="link" style="opacity: 0.8;"><path d="M1,216.0399305105801 A386.26821757440246 386.26821757440246 0.2337517670442164 0 1 90.4708746094829,226.54479369192828 L389.99238315048154,297.86215612286736 A384.26821757440246 384.26821757440246 0.2337517670442164 0 0 479,308.3126277560457 L479,310.3126277560457 A386.26821757440246 386.26821757440246 0.2337517670442164 0 1 389.5291253905171,299.8077645746975 L90.00761684951848,228.49040214375836 A384.26821757440246 384.26821757440246 0.2337517670442164 0 0 1,218.0399305105801 Z" style="fill: rgb(174, 199, 232);"/><title>sR_2 → R_4 : sR_4 to R_4 (18.46%)
b
2.00</title><text class="label" dy="0.35em" x="5" y="217.0399305105801"/></g><g class="link" style="opacity: 0.8;"><path d="M1,506.73485169504596 A159.75083735836006 159.75083735836006 0.6780548261614879 0 0 101.2083968320839,471.3970652639934 L377.53704452535584,248.8283670628731 A161.75083735836006 161.75083735836006 0.6780548261614879 0 1 479,213.04816934915812 L479,215.04816934915812 A159.75083735836006 159.75083735836006 0.6780548261614879 0 0 378.7916031679161,250.38595578021068 L102.46295547464416,472.954653981331 A161.75083735836006 161.75083735836006 0.6780548261614879 0 1 1,508.73485169504596 Z" style="fill: rgb(255, 152, 150);"/><title>sR_88 → R_1 : sR_1 to R_1 (47.31%)
j
2.00</title><text class="label" dy="0.35em" x="5" y="507.73485169504596"/></g><g class="link" style="opacity: 0.8;"><path d="M1,64.83979808222523 A150.52337524121353 150.52337524121353 0.7912071244068102 0 1 108.0525832477904,109.5471494235488 L373.36982151925974,377.96486812371114 A148.52337524121353 148.52337524121353 0.7912071244068102 0 0 479,422.0781941016029 L479,424.0781941016029 A150.52337524121353 150.52337524121353 0.7912071244068102 0 1 371.9474167522096,379.37084276027934 L106.63017848074024,110.95312406011698 A148.52337524121353 148.52337524121353 0.7912071244068102 0 0 1,66.83979808222523 Z" style="fill: rgb(148, 103, 189);"/><title>sR_0 → R_6 : sR_6 to R_6 (32.24%)
k
2.00</title><text class="label" dy="0.35em" x="5" y="65.83979808222523"/></g><g class="link" style="opacity: 0.8;"><path d="M1,64.8408898297244 A144.482457115792 144.482457115792 0.9500086495399804 0 1 118.52499771696083,125.28136145109211 L363.10184335513935,467.29961644764273 A142.482457115792 142.482457115792 0.9500086495399804 0 0 479,526.9034401765548 L479,528.9034401765548 A144.482457115792 144.482457115792 0.9500086495399804 0 1 361.47500228303915,468.4629685551871 L116.89815664486065,126.44471355863651 A142.482457115792 142.482457115792 0.9500086495399804 0 0 1,66.8408898297244 Z" style="fill: rgb(148, 103, 189);"/><title>sR_0 → R_99 : sR_99 to R_99 (22.07%)
k
4.00</title><text class="label" dy="0.35em" x="5" y="65.8408898297244"/></g><g class="link" style="opacity: 0.8;"><path d="M1,216.02391821392575 A491.65972557429586 491.65972557429586 0.18098021554635935 0 0 89.4957348346123,207.99400010384517 L390.1442774330948,152.980613224922 A493.65972557429586 493.65972557429586 0.18098021554635935 0 1 479,144.91803058003248 L479,146.91803058003248 A491.65972557429586 491.65972557429586 0.18098021554635935 0 0 390.5042651653877,154.94794869011307 L89.85572256690517,209.96133556903624 A493.65972557429586 493.65972557429586 0.18098021554635935 0 1 1,218.02391821392575 Z" style="fill: rgb(174, 199, 232);"/><title>sR_2 → R_1 : sR_1 to R_1 (47.31%)
b
6.00</title><text class="label" dy="0.35em" x="5" y="217.02391821392575"/></g><g class="link" style="opacity: 0.8;"><path d="M1,238.32432564545718 A970.4532387053429 970.4532387053429 0.09095201207775538 0 1 89.14303349626213,242.33548426541495 L391.0386198384495,269.8694599972896 A968.4532387053429 968.4532387053429 0.09095201207775538 0 0 479,273.87235204970966 L479,275.87235204970966 A970.4532387053429 970.4532387053429 0.09095201207775538 0 1 390.85696650373785,271.8611934297519 L88.96138016155051,244.32721769787724 A968.4532387053429 968.4532387053429 0.09095201207775538 0 0 1,240.32432564545718 Z" style="fill: rgb(255, 127, 14);"/><title>sR_3 → R_3 : sR_3 to R_3 (2.55%)
c
14.0</title><text class="label" dy="0.35em" x="5" y="239.32432564545718"/></g><g class="link" style="opacity: 0.8;"><path d="M1,441.78968610100577 A228.8179931817311 228.8179931817311 0.41345019740200906 0 0 92.93247903726093,422.5095016836557 L386.2639785685511,293.81343441709436 A230.8179931817311 230.8179931817311 0.41345019740200906 0 1 479,274.36473017182993 L479,276.36473017182993 A228.8179931817311 228.8179931817311 0.41345019740200906 0 0 387.0675209627391,295.64491458918 L93.73602143144883,424.34098185574135 A230.8179931817311 230.8179931817311 0.41345019740200906 0 1 1,443.78968610100577 Z" style="fill: rgb(44, 160, 44);"/><title>sR_5 → R_3 : sR_3 to R_3 (2.55%)
e
14.0</title><text class="label" dy="0.35em" x="5" y="442.78968610100577"/></g><g class="link" style="opacity: 0.8;"><path d="M1,238.36271876584425 A198.3760195411626 198.3760195411626 0.4993989914977852 0 1 96.00188247144109,262.59027447261576 L384.9559135634948,420.2211619179481 A196.3760195411626 196.3760195411626 0.4993989914977852 0 0 479,444.2044587091227 L479,446.2044587091227 A198.3760195411626 198.3760195411626 0.4993989914977852 0 1 383.9981175285589,421.9769030023512 L95.04408643650524,264.34601555701886 A196.3760195411626 196.3760195411626 0.4993989914977852 0 0 1,240.36271876584425 Z" style="fill: rgb(255, 127, 14);"/><title>sR_3 → R_6 : sR_6 to R_6 (32.24%)
c
17.0</title><text class="label" dy="0.35em" x="5" y="239.36271876584425"/></g><g class="link" style="opacity: 0.8;"><path d="M1,529.5623912107542 A163.95047423756435 163.95047423756435 0.6482599646074263 0 0 99.99334164118946,496.3026829569922 L378.7990578062467,285.11783524353774 A165.95047423756435 165.95047423756435 0.6482599646074263 0 1 479,251.4523982670205 L479,253.4523982670205 A163.95047423756435 163.95047423756435 0.6482599646074263 0 0 380.0066583588105,286.71210652078247 L101.20094219375326,497.89695423423694 A165.95047423756435 165.95047423756435 0.6482599646074263 0 1 1,531.5623912107542 Z" style="fill: rgb(214, 39, 40);"/><title>sR_99 → R_2 : sR_2 to R_2 (81.63%)
i
17.0</title><text class="label" dy="0.35em" x="5" y="530.5623912107542"/></g><g class="link" style="opacity: 0.8;"><path d="M1,443.7102519099414 A574.2976383536278 574.2976383536278 0.15490483248400944 0 1 89.6061267741591,450.5867664792709 L390.702445369819,497.6047174480149 A572.2976383536278 572.2976383536278 0.15490483248400944 0 0 479,504.45728445388573 L479,506.45728445388573 A574.2976383536278 574.2976383536278 0.15490483248400944 0 1 390.39387322584093,499.5807698845562 L89.29755463018103,452.5628189158122 A572.2976383536278 572.2976383536278 0.15490483248400944 0 0 1,445.7102519099414 Z" style="fill: rgb(44, 160, 44);"/><title>sR_5 → R_88 : sR_88 to R_88 (99.71%)
e
21.0</title><text class="label" dy="0.35em" x="5" y="444.7102519099414"/></g><g class="link" style="opacity: 0.8;"><path d="M1,529.7991184601549 A999 999 0.059770413630955366 0 0 60.67509683190379,528.0151847256873 L419.2054335047691,506.56012269660135 A1001 1001 0.059770413630955366 0 1 479,504.7726175232259 L479,506.7726175232259 A999 999 0.059770413630955366 0 0 419.32490316809617,508.55655125769346 L60.794566495230924,530.0116132867795 A1001 1001 0.059770413630955366 0 1 1,531.7991184601549 Z" style="fill: rgb(214, 39, 40);"/><title>sR_99 → R_88 : sR_88 to R_88 (99.71%)
i
28.0</title><text class="label" dy="0.35em" x="5" y="530.7991184601549"/></g><g class="link" style="opacity: 0.8;"><path d="M1,238.33269570961738 A501.2036005470528 501.2036005470528 0.17816871099527387 0 1 89.82709725145237,246.26679994130845 L390.5273578927425,300.4163702979645 A499.2036005470528 499.2036005470528 0.17816871099527387 0 0 479,308.31881432520754 L479,310.31881432520754 A501.2036005470528 501.2036005470528 0.17816871099527387 0 1 390.17290274854764,302.38471009351645 L89.47264210725747,248.23513973686048 A499.2036005470528 499.2036005470528 0.17816871099527387 0 0 1,240.33269570961738 Z" style="fill: rgb(255, 127, 14);"/><title>sR_3 → R_4 : sR_4 to R_4 (18.46%)
c
32.0</title><text class="label" dy="0.35em" x="5" y="239.33269570961738"/></g><g class="link" style="opacity: 0.8;"><path d="M1,216.03228827808599 A1001 1001 0.05651027981770662 0 1 57.53668806254469,217.63016555524595 L422.5762723531647,238.28064111286423 A999 999 0.05651027981770662 0 0 479,239.8753258280319 L479,241.8753258280319 A1001 1001 0.05651027981770662 0 1 422.46331193745533,240.27744855087192 L57.42372764683531,219.62697299325364 A999 999 0.05651027981770662 0 0 1,218.03228827808599 Z" style="fill: rgb(174, 199, 232);"/><title>sR_2 → R_2 : sR_2 to R_2 (81.63%)
b
40.0</title><text class="label" dy="0.35em" x="5" y="217.03228827808599"/></g><g class="link" style="opacity: 0.8;"><path d="M1,529.5731267278293 A207.6398458283322 207.6398458283322 0.46517668390324785 0 0 94.1432311953086,507.50979896714176 L384.95960736803426,361.54533512606304 A209.6398458283322 209.6398458283322 0.46517668390324785 0 1 479,339.2694920105054 L479,341.2694920105054 A207.6398458283322 207.6398458283322 0.46517668390324785 0 0 385.8567688046914,363.33281977119293 L95.04039263196577,509.29728361227166 A209.6398458283322 209.6398458283322 0.46517668390324785 0 1 1,531.5731267278293 Z" style="fill: rgb(214, 39, 40);"/><title>sR_99 → R_4 : sR_4 to R_4 (18.46%)
i
40.0</title><text class="label" dy="0.35em" x="5" y="530.5731267278293"/></g><g class="link" style="opacity: 0.8;"><path d="M1,443.7222611324321 A414.21449709540013 414.21449709540013 0.21720059119099577 0 1 90.2619133979491,453.4544218761291 L390.1690802733197,519.6384926034511 A412.21449709540013 412.21449709540013 0.21720059119099577 0 0 479,529.3236624242716 L479,531.3236624242716 A414.21449709540013 414.21449709540013 0.21720059119099577 0 1 389.73808660205094,521.5915016805745 L89.8309197266803,455.4074309532525 A412.21449709540013 412.21449709540013 0.21720059119099577 0 0 1,445.7222611324321 Z" style="fill: rgb(44, 160, 44);"/><title>sR_5 → R_99 : sR_99 to R_99 (22.07%)
e
45.0</title><text class="label" dy="0.35em" x="5" y="444.7222611324321"/></g><g class="link" style="opacity: 0.8;"><path d="M1,238.34907192210477 A270.29349476986096 270.29349476986096 0.3443922760954581 0 1 92.25776029490382,254.22048726318909 L388.4174891066595,360.44897812996885 A268.29349476986096 268.29349476986096 0.3443922760954581 0 0 479,376.20295508908544 L479,378.20295508908544 A270.29349476986096 270.29349476986096 0.3443922760954581 0 1 387.7422397050962,362.3315397480011 L91.5825108933405,256.10304888122135 A268.29349476986096 268.29349476986096 0.3443922760954581 0 0 1,240.34907192210477 Z" style="fill: rgb(255, 127, 14);"/><title>sR_3 → R_5 : sR_5 to R_5 (33.14%)
c
58.0</title><text class="label" dy="0.35em" x="5" y="239.34907192210477"/></g><g class="link" style="opacity: 0.8;"><path d="M1,529.5487443670147 A154.76324320507436 154.76324320507436 0.7201984355571786 0 0 103.07159669739929,491.11714172028746 L375.6093356146466,251.9873397329266 A156.76324320507436 156.76324320507436 0.7201984355571786 0 1 479,213.0590868241497 L479,215.0590868241497 A154.76324320507436 154.76324320507436 0.7201984355571786 0 0 376.9284033026007,253.490689470877 L104.3906643853534,492.6204914582378 A156.76324320507436 156.76324320507436 0.7201984355571786 0 1 1,531.5487443670147 Z" style="fill: rgb(214, 39, 40);"/><title>sR_99 → R_1 : sR_1 to R_1 (47.31%)
i
58.0</title><text class="label" dy="0.35em" x="5" y="530.5487443670147"/></g><g class="link" style="opacity: 0.8;"><path d="M1,238.30958705421853 A1001 1001 0.0033396562588581258 0 1 4.342989700878871,238.31516927764577 L475.6636895992228,239.8892242549665 A999 999 0.0033396562588581258 0 0 479,239.8947953251002 L479,241.8947953251002 A1001 1001 0.0033396562588581258 0 1 475.65701029912117,241.88921310167296 L4.336310400777215,240.31515812435222 A999 999 0.0033396562588581258 0 0 1,240.30958705421853 Z" style="fill: rgb(255, 127, 14);"/><title>sR_3 → R_2 : sR_2 to R_2 (81.63%)
c
67.0</title><text class="label" dy="0.35em" x="5" y="239.30958705421853"/></g><g class="link" style="opacity: 0.8;"><path d="M1,529.5931420986471 A282.78882917996447 282.78882917996447 0.3248355139222616 0 0 91.25287667003117,514.8042012801506 L388.1088175175947,414.8336274792202 A284.78882917996447 284.78882917996447 0.3248355139222616 0 1 479,399.940093131613 L479,401.940093131613 A282.78882917996447 282.78882917996447 0.3248355139222616 0 0 388.7471233299688,416.72903395010957 L91.89118248240537,516.6996077510399 A284.78882917996447 284.78882917996447 0.3248355139222616 0 1 1,531.5931420986471 Z" style="fill: rgb(214, 39, 40);"/><title>sR_99 → R_5 : sR_5 to R_5 (33.14%)
i
70.0</title><text class="label" dy="0.35em" x="5" y="530.5931420986471"/></g><g class="link" style="opacity: 0.8;"><path d="M1,474.7826685392912 A200.0826750468676 200.0826750468676 0.48749413404597997 0 0 94.72140710015339,451.47492017909406 L384.3417660898472,297.92583899363217 A202.0826750468676 202.0826750468676 0.48749413404597997 0 1 479,274.3851094584809 L479,276.3851094584809 A200.0826750468676 200.0826750468676 0.48749413404597997 0 0 385.2785928998466,299.692857818678 L95.6582339101528,453.2419390041399 A202.0826750468676 202.0826750468676 0.48749413404597997 0 1 1,476.7826685392912 Z" style="fill: rgb(152, 223, 138);"/><title>sR_6 → R_3 : sR_3 to R_3 (2.55%)
f
98.0</title><text class="label" dy="0.35em" x="5" y="475.7826685392912"/></g><g class="link" style="opacity: 0.8;"><path d="M1,484.1101952562646 A1001 1001 0.04727642895016104 0 1 48.30607878976916,485.22863481546113 L431.78843885017045,503.371830427056 A999 999 0.04727642895016104 0 0 479,504.48803534177864 L479,506.48803534177864 A1001 1001 0.04727642895016104 0 1 431.6939212102309,505.3695957825821 L48.21156114982956,487.22640017098723 A999 999 0.04727642895016104 0 0 1,486.1101952562646 Z" style="fill: rgb(152, 223, 138);"/><title>sR_6 → R_88 : sR_88 to R_88 (99.71%)
f
148</title><text class="label" dy="0.35em" x="5" y="485.1101952562646"/></g><g class="link" style="opacity: 0.8;"><path d="M1,440.0230566894515 A147.03277308016524 147.03277308016524 0.8139061294464927 0 0 107.88913729003376,393.9523987269663 L370.65691288570827,115.75873362491309 A149.03277308016524 149.03277308016524 0.8139061294464927 0 1 479,69.06140370355291 L479,71.06140370355291 A147.03277308016524 147.03277308016524 0.8139061294464927 0 0 372.1108627099662,117.1320616660381 L109.34308711429172,395.3257267680913 A149.03277308016524 149.03277308016524 0.8139061294464927 0 1 1,442.0230566894515 Z" style="fill: rgb(44, 160, 44);"/><title>sR_5 → R_0 : sR_0 to R_0 (99.96%)
e
233</title><text class="label" dy="0.35em" x="5" y="441.0230566894515"/></g><g class="link" style="opacity: 0.8;"><path d="M1,192.8845028292914 A157.77685478753895 157.77685478753895 0.7108791733228644 0 1 103.94943727986715,231.09987021220303 L377.3555632212329,466.51854411406975 A155.77685478753895 155.77685478753895 0.7108791733228644 0 0 479,504.24948851321267 L479,506.24948851321267 A157.77685478753895 157.77685478753895 0.7108791733228644 0 1 376.05056272013286,468.03412113030106 L102.64443677876706,232.61544722843433 A155.77685478753895 155.77685478753895 0.7108791733228644 0 0 1,194.8845028292914 Z" style="fill: rgb(31, 119, 180);"/><title>sR_1 → R_88 : sR_88 to R_88 (99.71%)
a
315</title><text class="label" dy="0.35em" x="5" y="193.8845028292914"/></g><g class="link" style="opacity: 0.8;"><path d="M1,238.23152710802873 A380.5352182755336 380.5352182755336 0.2361610763276003 0 0 90.03458292853195,227.6691394440826 L389.4974730880859,155.60289208247536 A382.5352182755336 382.5352182755336 0.2361610763276003 0 1 479,144.9849910933142 L479,146.9849910933142 A380.5352182755336 380.5352182755336 0.2361610763276003 0 0 389.96541707146804,157.54737875726033 L90.50252691191413,229.61362611886756 A382.5352182755336 382.5352182755336 0.2361610763276003 0 1 1,240.23152710802873 Z" style="fill: rgb(255, 127, 14);"/><title>sR_3 → R_1 : sR_1 to R_1 (47.31%)
c
362</title><text class="label" dy="0.35em" x="5" y="239.23152710802873"/></g><g class="link" style="opacity: 0.8;"><path d="M1,416.32703203816305 A403.4344561801028 403.4344561801028 0.22329235669290348 0 1 90.33710571745517,426.342828295578 L390.1057771565727,494.41399069646735 A401.4344561801028 401.4344561801028 0.22329235669290348 0 0 479,504.3801342972786 L479,506.3801342972786 A403.4344561801028 403.4344561801028 0.22329235669290348 0 1 389.6628942825448,496.36433803986364 L89.8942228434273,428.2931756389743 A401.4344561801028 401.4344561801028 0.22329235669290348 0 0 1,418.32703203816305 Z" style="fill: rgb(255, 187, 120);"/><title>sR_4 → R_88 : sR_88 to R_88 (99.71%)
d
403</title><text class="label" dy="0.35em" x="5" y="417.32703203816305"/></g><g class="link" style="opacity: 0.8;"><path d="M1,441.8784815642706 A342.9061931690355 342.9061931690355 0.2636544491644799 0 0 90.36493745571764,430.0290286486478 L389.11384164342996,349.38521781047257 A344.9061931690355 344.9061931690355 0.2636544491644799 0 1 479,337.4666529735624 L479,339.4666529735624 A342.9061931690355 342.9061931690355 0.2636544491644799 0 0 389.6350625442824,351.3161058891852 L90.88615835657004,431.95991672736045 A344.9061931690355 344.9061931690355 0.2636544491644799 0 1 1,443.8784815642706 Z" style="fill: rgb(44, 160, 44);"/><title>sR_5 → R_4 : sR_4 to R_4 (18.46%)
e
474</title><text class="label" dy="0.35em" x="5" y="442.8784815642706"/></g><g class="link" style="opacity: 0.8;"><path d="M1,529.6999513956481 A724.2579313929621 724.2579313929621 0.12194081297560544 0 0 89.0978920996712,524.3219213723149 L390.6588302273312,487.3659806956728 A726.2579313929621 726.2579313929621 0.12194081297560544 0 1 479,481.9730995266628 L479,483.9730995266628 A724.2579313929621 724.2579313929621 0.12194081297560544 0 0 390.90210790032876,489.3511295499961 L89.3411697726688,526.3070702266381 A726.2579313929621 726.2579313929621 0.12194081297560544 0 1 1,531.6999513956481 Z" style="fill: rgb(214, 39, 40);"/><title>sR_99 → R_6 : sR_6 to R_6 (32.24%)
i
517</title><text class="label" dy="0.35em" x="5" y="530.6999513956481"/></g><g class="link" style="opacity: 0.8;"><path d="M1,529.9021066409088 A0 0 0 0 0 1,529.9021066409088 L479,529.9021066409088 A0 0 0 0 0 479,529.9021066409088 L479,531.9021066409088 A0 0 0 0 0 479,531.9021066409088 L1,531.9021066409088 A0 0 0 0 0 1,531.9021066409088 Z" style="fill: rgb(214, 39, 40);"/><title>sR_99 → R_99 : sR_99 to R_99 (22.07%)
i
538</title><text class="label" dy="0.35em" x="5" y="530.9021066409088"/></g><g class="link" style="opacity: 0.8;"><path d="M1,441.6619516436043 A206.93233183870205 206.93233183870205 0.4671646812724588 0 0 94.19333893840746,419.48889978215755 L384.9059478853543,272.8522669559377 A208.93233183870205 208.93233183870205 0.4671646812724588 0 1 479,250.46491265403202 L479,252.46491265403202 A206.93233183870205 206.93233183870205 0.4671646812724588 0 0 385.80666106159254,274.63796451547876 L95.09405211464568,421.2745973416986 A208.93233183870205 208.93233183870205 0.4671646812724588 0 1 1,443.6619516436043 Z" style="fill: rgb(44, 160, 44);"/><title>sR_5 → R_2 : sR_2 to R_2 (81.63%)
e
688</title><text class="label" dy="0.35em" x="5" y="442.6619516436043"/></g><g class="link" style="opacity: 0.8;"><path d="M1,506.86149440494825 A999 999 0.004690875663685423 0 0 5.686167601993338,506.8505032700138 L474.30445068108577,504.6522570467024 A1001 1001 0.004690875663685423 0 1 479,504.64124390749384 L479,506.64124390749384 A999 999 0.004690875663685423 0 0 474.31383239800664,506.6522350424283 L5.695549318914246,508.8504812657397 A1001 1001 0.004690875663685423 0 1 1,508.86149440494825 Z" style="fill: rgb(255, 152, 150);"/><title>sR_88 → R_88 : sR_88 to R_88 (99.71%)
j
694</title><text class="label" dy="0.35em" x="5" y="507.86149440494825"/></g><g class="link" style="opacity: 0.8;"><path d="M1,143.98586017366802 A284.6260550990825 284.6260550990825 0.3250420307980406 0 1 91.89493679940122,158.88964755000796 L388.7437604327813,258.9260861093506 A282.6260550990825 282.6260550990825 0.3250420307980406 0 0 479,273.7251480952399 L479,275.7251480952399 A284.6260550990825 284.6260550990825 0.3250420307980406 0 1 388.1050632005988,260.82136071889994 L91.25623956721873,160.7849221595573 A282.6260550990825 282.6260550990825 0.3250420307980406 0 0 1,145.98586017366802 Z" style="fill: rgb(31, 119, 180);"/><title>sR_1 → R_3 : sR_3 to R_3 (2.55%)
a
795</title><text class="label" dy="0.35em" x="5" y="144.98586017366802"/></g><g class="link" style="opacity: 0.8;"><path d="M1,529.3254820034368 A142.5400705162279 142.5400705162279 0.9435363403547593 0 0 116.40596276670217,470.4462473703255 L361.9747597578659,131.69630370707634 A144.5400705162279 144.5400705162279 0.9435363403547593 0 1 479,71.99092615962705 L479,73.99092615962705 A142.5400705162279 142.5400705162279 0.9435363403547593 0 0 363.5940372332978,132.87016079273835 L118.02524024213409,471.62010445598753 A144.5400705162279 144.5400705162279 0.9435363403547593 0 1 1,531.3254820034368 Z" style="fill: rgb(214, 39, 40);"/><title>sR_99 → R_0 : sR_0 to R_0 (99.96%)
i
1.17k</title><text class="label" dy="0.35em" x="5" y="530.3254820034368"/></g><g class="link" style="opacity: 0.8;"><path d="M1,484.37330640356174 A766.1110632366932 766.1110632366932 0.11550890981326312 0 1 89.29600223487859,489.47847136942363 L390.93450220885535,524.4761944203811 A764.1110632366932 764.1110632366932 0.11550890981326312 0 0 479,529.5680319061664 L479,531.5680319061664 A766.1110632366932 766.1110632366932 0.11550890981326312 0 1 390.7039977651214,526.4628669403045 L89.06549779114468,491.4651438893471 A764.1110632366932 764.1110632366932 0.11550890981326312 0 0 1,486.37330640356174 Z" style="fill: rgb(152, 223, 138);"/><title>sR_6 → R_99 : sR_99 to R_99 (22.07%)
f
1.30k</title><text class="label" dy="0.35em" x="5" y="485.37330640356174"/></g><g class="link" style="opacity: 0.8;"><path d="M1,334.88412426430403 A572.1281855125716 572.1281855125716 0.1549516557869004 0 0 89.29787848667962,328.0294524711169 L390.3934568443788,280.9971749179488 A574.1281855125716 574.1281855125716 0.1549516557869004 0 1 479,274.1185411107698 L479,276.1185411107698 A572.1281855125716 572.1281855125716 0.1549516557869004 0 0 390.7021215133204,282.97321290395695 L89.60654315562115,330.005490457125 A574.1281855125716 574.1281855125716 0.1549516557869004 0 1 1,336.88412426430403 Z" style="fill: rgb(255, 187, 120);"/><title>sR_4 → R_3 : sR_3 to R_3 (2.55%)
d
1.34k</title><text class="label" dy="0.35em" x="5" y="335.88412426430403"/></g><g class="link" style="opacity: 0.8;"><path d="M1,443.45696649013667 A1001 1001 0.0806941980654774 0 1 81.68725912636538,446.7142310043428 L398.4739541785824,472.332708836725 A999 999 0.0806941980654774 0 0 479,475.5834653299237 L479,477.5834653299237 A1001 1001 0.0806941980654774 0 1 398.31274087363465,474.3262008157175 L81.5260458214176,448.7077229833354 A999 999 0.0806941980654774 0 0 1,445.45696649013667 Z" style="fill: rgb(44, 160, 44);"/><title>sR_5 → R_6 : sR_6 to R_6 (32.24%)
e
1.37k</title><text class="label" dy="0.35em" x="5" y="444.45696649013667"/></g><g class="link" style="opacity: 0.8;"><path d="M1,474.3352340225529 A185.96896579112286 185.96896579112286 0.5369703494101716 0 0 96.12964950457936,448.1624071790145 L382.84728033852764,277.4740043949922 A187.96896579112286 187.96896579112286 0.5369703494101716 0 1 479,251.01970234152083 L479,253.01970234152083 A185.96896579112286 185.96896579112286 0.5369703494101716 0 0 383.87035049542067,279.19252918505924 L97.15271966147239,449.88093196908153 A187.96896579112286 187.96896579112286 0.5369703494101716 0 1 1,476.3352340225529 Z" style="fill: rgb(152, 223, 138);"/><title>sR_6 → R_2 : sR_2 to R_2 (81.63%)
f
2.36k</title><text class="label" dy="0.35em" x="5" y="475.3352340225529"/></g><g class="link" style="opacity: 0.8;"><path d="M1,193.41982301971188 A153.7184958568705 153.7184958568705 0.7513153462775921 0 1 105.92833662866285,234.8021263968623 L375.4368645599614,486.5382847874527 A151.7184958568705 151.7184958568705 0.7513153462775921 0 0 479,527.3821714549356 L479,529.3821714549356 A153.7184958568705 153.7184958568705 0.7513153462775921 0 1 374.07166337133714,487.99986807778515 L104.56313544003864,236.26370968719473 A151.7184958568705 151.7184958568705 0.7513153462775921 0 0 1,195.41982301971188 Z" style="fill: rgb(31, 119, 180);"/><title>sR_1 → R_99 : sR_99 to R_99 (22.07%)
a
2.63k</title><text class="label" dy="0.35em" x="5" y="194.41982301971188"/></g><g class="link" style="opacity: 0.8;"><path d="M1,442.58611590164156 A770.6064532964097 770.6064532964097 0.11452476612210627 0 0 89.06072925670888,437.5380299586612 L390.7107215820947,402.83980257688063 A772.6064532964097 772.6064532964097 0.11452476612210627 0 1 479,397.77861504119653 L479,399.77861504119653 A770.6064532964097 770.6064532964097 0.11452476612210627 0 0 390.9392707432911,404.8267009841769 L89.28927841790527,439.52492836595746 A772.6064532964097 772.6064532964097 0.11452476612210627 0 1 1,444.58611590164156 Z" style="fill: rgb(44, 160, 44);"/><title>sR_5 → R_5 : sR_5 to R_5 (33.14%)
e
3.42k</title><text class="label" dy="0.35em" x="5" y="443.58611590164156"/></g><g class="link" style="opacity: 0.8;"><path d="M1,417.12801078671197 A325.2073737173687 325.2073737173687 0.28087956397461533 0 1 91.14776084263936,429.87223926098704 L389.4066408599554,515.921972147329 A323.2073737173687 323.2073737173687 0.28087956397461533 0 0 479,528.5878246098391 L479,530.5878246098391 A325.2073737173687 325.2073737173687 0.28087956397461533 0 1 388.85223915736066,517.8435961355641 L90.5933591400446,431.793863249222 A323.2073737173687 323.2073737173687 0.28087956397461533 0 0 1,419.12801078671197 Z" style="fill: rgb(255, 187, 120);"/><title>sR_4 → R_99 : sR_99 to R_99 (22.07%)
d
4.00k</title><text class="label" dy="0.35em" x="5" y="418.12801078671197"/></g><g class="link" style="opacity: 0.8;"><path d="M1,440.80110874051815 A180.62853148604177 180.62853148604177 0.559172845920803 0 0 96.82076369242031,413.29033465774205 L382.1182658960495,234.75177058582165 A182.62853148604177 182.62853148604177 0.559172845920803 0 1 479,206.9363848909548 L479,208.9363848909548 A180.62853148604177 180.62853148604177 0.559172845920803 0 0 383.1792363075797,236.4471589737309 L97.88173410395052,414.9857230456513 A182.62853148604177 182.62853148604177 0.559172845920803 0 1 1,442.80110874051815 Z" style="fill: rgb(44, 160, 44);"/><title>sR_5 → R_1 : sR_1 to R_1 (47.31%)
e
4.04k</title><text class="label" dy="0.35em" x="5" y="441.80110874051815"/></g><g class="link" style="opacity: 0.8;"><path d="M1,477.2734904586203 A449.4910537161589 449.4910537161589 0.19852296492964516 0 0 89.64930969566362,468.44501430191923 L389.95624726053046,408.03143695803396 A451.4910537161589 451.4910537161589 0.19852296492964516 0 1 479,399.1636787017951 L479,401.1636787017951 A449.4910537161589 449.4910537161589 0.19852296492964516 0 0 390.3506903043364,409.9921548584962 L90.04375273946954,470.40573220238144 A451.4910537161589 451.4910537161589 0.19852296492964516 0 1 1,479.2734904586203 Z" style="fill: rgb(152, 223, 138);"/><title>sR_6 → R_5 : sR_5 to R_5 (33.14%)
f
4.20k</title><text class="label" dy="0.35em" x="5" y="478.2734904586203"/></g><g class="link" style="opacity: 0.8;"><path d="M1,87.77305514743526 A999 999 0.05188317305336887 0 0 52.80803921575731,86.42877084930933 L427.088240986013,66.99248329458592 A1001 1001 0.05188317305336887 0 1 479,65.64550773660389 L479,67.64550773660389 A999 999 0.05188317305336887 0 0 427.19196078424267,68.98979203472982 L52.91175901398706,88.42607958945322 A1001 1001 0.05188317305336887 0 1 1,89.77305514743526 Z" style="fill: rgb(31, 119, 180);"/><title>sR_1 → R_0 : sR_0 to R_0 (99.96%)
a
4.43k</title><text class="label" dy="0.35em" x="5" y="88.77305514743526"/></g><g class="link" style="opacity: 0.8;"><path d="M1,475.65515674903503 A269.3007972149166 269.3007972149166 0.3429521916130551 0 0 91.55746326320681,459.9727051401148 L387.7699990822467,354.2064768870279 A271.3007972149166 271.3007972149166 0.3429521916130551 0 1 479,338.4075573599202 L479,340.4075573599202 A269.3007972149166 269.3007972149166 0.3429521916130551 0 0 388.44253673679316,356.09000896884044 L92.23000091775327,461.8562372219273 A271.3007972149166 271.3007972149166 0.3429521916130551 0 1 1,477.65515674903503 Z" style="fill: rgb(152, 223, 138);"/><title>sR_6 → R_4 : sR_4 to R_4 (18.46%)
f
4.70k</title><text class="label" dy="0.35em" x="5" y="476.65515674903503"/></g><g class="link" style="opacity: 0.8;"><path d="M1,261.4908120504252 A204.4497991354588 204.4497991354588 0.4734719781424319 0 0 94.22482622167779,238.9993931629435 L384.6046471426517,90.22576533251735 A207.01686142181242 207.01686142181242 0.4734719781424319 0 1 479,67.45194522264863 L479,70.0190075090023 A204.4497991354588 204.4497991354588 0.4734719781424319 0 0 385.7751737783222,92.51042639648396 L95.3953528573483,241.28405422691011 A207.01686142181242 207.01686142181242 0.4734719781424319 0 1 1,264.05787433677887 Z" style="fill: rgb(255, 187, 120);"/><title>sR_4 → R_0 : sR_0 to R_0 (99.96%)
d
7.05k</title><text class="label" dy="0.35em" x="5" y="262.774343193602"/></g><g class="link" style="opacity: 0.8;"><path d="M1,466.85544923867576 A144.55854440663302 144.55854440663302 0.8549577401789404 0 0 110.07566433976245,417.1635070153399 L367.9063721973866,120.71507206008123 A147.23296186373722 147.23296186373722 0.8549577401789404 0 1 479,70.10379989810356 L479,72.77821735520776 A144.55854440663302 144.55854440663302 0.8549577401789404 0 0 369.92433566023755,122.4701595785436 L112.09362780261338,418.91859453380226 A147.23296186373722 147.23296186373722 0.8549577401789404 0 1 1,469.5298666957799 Z" style="fill: rgb(152, 223, 138);"/><title>sR_6 → R_0 : sR_0 to R_0 (99.96%)
f
7.35k</title><text class="label" dy="0.35em" x="5" y="468.19265796722783"/></g><g class="link" style="opacity: 0.8;"><path d="M1,140.167796501967 A373.64718062116503 373.64718062116503 0.24302988915448753 0 1 90.91616781680945,151.14805231293533 L390.208462265785,225.35172056317924 A368.9737734931024 368.9737734931024 0.24302988915448753 0 0 479,236.19464038330824 L479,240.86804751137083 A373.64718062116503 373.64718062116503 0.24302988915448753 0 1 389.08383218319057,229.8877917004025 L89.79153773421503,155.68412345015858 A368.9737734931024 368.9737734931024 0.24302988915448753 0 0 1,144.84120363002958 Z" style="fill: rgb(31, 119, 180);"/><title>sR_1 → R_2 : sR_2 to R_2 (81.63%)
a
12.8k</title><text class="label" dy="0.35em" x="5" y="142.5045000659983"/></g><g class="link" style="opacity: 0.8;"><path d="M1,469.52986669577996 A167.8250039087037 167.8250039087037 0.6143044926890959 0 0 97.73270617659907,438.8471811746118 L379.16875514489647,240.33755298367123 A173.20076859455799 173.20076859455799 0.6143044926890959 0 1 479,208.6720407474708 L479,214.04780543332507 A167.8250039087037 167.8250039087037 0.6143044926890959 0 0 382.26729382340096,244.73049095449323 L100.83124485510353,443.2401191454338 A173.20076859455799 173.20076859455799 0.6143044926890959 0 1 1,474.90563138163424 Z" style="fill: rgb(152, 223, 138);"/><title>sR_6 → R_1 : sR_1 to R_1 (47.31%)
f
14.8k</title><text class="label" dy="0.35em" x="5" y="472.2177490387071"/></g><g class="link" style="opacity: 0.8;"><path d="M1,479.0371678342814 A996.9769511748314 996.9769511748314 0.004656709733423359 0 0 5.642615493348107,479.0263581583692 L474.3292296866306,476.8438048639242 A1003.0230488251686 1003.0230488251686 0.004656709733423359 0 1 479,476.83292963348134 L479,482.87902728381863 A996.9769511748314 996.9769511748314 0.004656709733423359 0 0 474.3573845066519,482.8898369597308 L5.670770313369448,485.0723902541758 A1003.0230488251686 1003.0230488251686 0.004656709733423359 0 1 1,485.08326548461866 Z" style="fill: rgb(152, 223, 138);"/><title>sR_6 → R_6 : sR_6 to R_6 (32.24%)
f
16.6k</title><text class="label" dy="0.35em" x="5" y="482.06021665945"/></g><g class="link" style="opacity: 0.8;"><path d="M1,59 A0 0 0 0 0 1,59 L479,59 A0 0 0 0 0 479,59 L479,65.83907025055913 A0 0 0 0 0 479,65.83907025055913 L1,65.83907025055913 A0 0 0 0 0 1,65.83907025055913 Z" style="fill: rgb(148, 103, 189);"/><title>sR_0 → R_0 : sR_0 to R_0 (99.96%)
k
18.8k</title><text class="label" dy="0.35em" x="5" y="62.419535125279566"/></g><g class="link" style="opacity: 0.8;"><path d="M1,325.2077435121208 A413.98025334543314 413.98025334543314 0.21396463694129197 0 0 88.90282366738931,315.76765350186116 L388.8819324454059,250.58497674260195 A424.4129924473876 424.4129924473876 0.21396463694129197 0 1 479,240.9069865055075 L479,251.33972560746193 A413.98025334543314 413.98025334543314 0.21396463694129197 0 0 391.0971763326107,260.77981561772157 L91.11806755459413,325.96249237698083 A424.4129924473876 424.4129924473876 0.21396463694129197 0 1 1,335.64048261407527 Z" style="fill: rgb(255, 187, 120);"/><title>sR_4 → R_2 : sR_2 to R_2 (81.63%)
d
28.7k</title><text class="label" dy="0.35em" x="5" y="330.42411306309805"/></g><g class="link" style="opacity: 0.8;"><path d="M1,145.13051671730648 A253.640737698588 253.640737698588 0.3786527188533011 0 1 94.7631079203717,163.09753205084874 L389.5930558056768,280.39602398415013 A241.85677910850893 241.85677910850893 0.3786527188533011 0 0 479,297.52830525013354 L479,309.31226384021255 A253.640737698588 253.640737698588 0.3786527188533011 0 1 385.23689207962826,291.34524850667026 L90.4069441943232,174.04675657336892 A241.85677910850893 241.85677910850893 0.3786527188533011 0 0 1,156.9144753073855 Z" style="fill: rgb(31, 119, 180);"/><title>sR_1 → R_4 : sR_4 to R_4 (18.46%)
a
32.4k</title><text class="label" dy="0.35em" x="5" y="151.02249601234598"/></g><g class="link" style="opacity: 0.8;"><path d="M1,156.91447530738552 A205.00475904117607 205.00475904117607 0.498627562533281 0 1 99.03751122819307,181.87591283478653 L388.0353261273354,339.24151953922734 A190.21485567008185 190.21485567008185 0.498627562533281 0 0 479,362.40213424299964 L479,377.1920376140938 A205.00475904117607 205.00475904117607 0.498627562533281 0 1 380.96248877180693,352.23060008669285 L91.9646738726646,194.86499338225198 A190.21485567008185 190.21485567008185 0.498627562533281 0 0 1,171.70437867847974 Z" style="fill: rgb(31, 119, 180);"/><title>sR_1 → R_5 : sR_5 to R_5 (33.14%)
a
40.6k</title><text class="label" dy="0.35em" x="5" y="164.30942699293263"/></g><g class="link" style="opacity: 0.8;"><path d="M1,365.1835338571254 A1010.4718600540076 1010.4718600540076 0.026646919840046746 0 1 27.922776267899522,365.54225961426886 L452.63524331975674,376.862218082668 A989.5281399459924 989.5281399459924 0.026646919840046746 0 0 479,377.21350864824393 L479,398.15722875625903 A1010.4718600540076 1010.4718600540076 0.026646919840046746 0 1 452.07722373210044,397.79850299911556 L27.364756680243254,386.4785445307164 A989.5281399459924 989.5281399459924 0.026646919840046746 0 0 1,386.1272539651405 Z" style="fill: rgb(255, 187, 120);"/><title>sR_4 → R_5 : sR_5 to R_5 (33.14%)
d
57.6k</title><text class="label" dy="0.35em" x="5" y="375.65539391113293"/></g><g class="link" style="opacity: 0.8;"><path d="M1,171.70437867847974 A185.10850281613014 185.10850281613014 0.5952121602134073 0 1 104.78745761922411,203.53756888436916 L387.61645630829526,395.0498366790743 A162.98569540902426 162.98569540902426 0.5952121602134073 0 0 479,423.0785580174359 L479,445.20136542454173 A185.10850281613014 185.10850281613014 0.5952121602134073 0 1 375.21254238077586,413.3681752186523 L92.38354369170474,221.85590742394717 A162.98569540902426 162.98569540902426 0.5952121602134073 0 0 1,193.82718608558562 Z" style="fill: rgb(31, 119, 180);"/><title>sR_1 → R_6 : sR_6 to R_6 (32.24%)
a
60.8k</title><text class="label" dy="0.35em" x="5" y="182.76578238203268"/></g><g class="link" style="opacity: 0.8;"><path d="M1,336.1277659145328 A985.4721160287037 985.4721160287037 0.0647762871707398 0 0 64.79059239798407,334.0609843189942 L413.3285987800418,311.45235578929527 A1014.5278839712963 1014.5278839712963 0.0647762871707398 0 1 479,309.3246369785364 L479,338.380404921129 A985.4721160287037 985.4721160287037 0.0647762871707398 0 0 415.2094076020159,340.4471865166676 L66.67140121995824,363.05581504636655 A1014.5278839712963 1014.5278839712963 0.0647762871707398 0 1 1,365.18353385712544 Z" style="fill: rgb(255, 187, 120);"/><title>sR_4 → R_4 : sR_4 to R_4 (18.46%)
d
79.8k</title><text class="label" dy="0.35em" x="5" y="350.6556498858291"/></g><g class="link" style="opacity: 0.8;"><path d="M1,386.12725396514054 A604.5272853517877 604.5272853517877 0.15069609484992963 0 1 91.75548973784225,392.97847336042184 L392.91741121172436,438.70909439509575 A573.4008363191253 573.4008363191253 0.15069609484992963 0 0 479,445.2075519937037 L479,476.334001026366 A604.5272853517877 604.5272853517877 0.15069609484992963 0 1 388.24451026215775,469.4827816310847 L87.0825887882757,423.7521605964108 A573.4008363191253 573.4008363191253 0.15069609484992963 0 0 1,417.25370299780286 Z" style="fill: rgb(255, 187, 120);"/><title>sR_4 → R_6 : sR_6 to R_6 (32.24%)
d
85.5k</title><text class="label" dy="0.35em" x="5" y="401.6904784814717"/></g><g class="link" style="opacity: 0.8;"><path d="M1,89.57949263347999 A1025.2941519342435 1025.2941519342435 0.01234575268347271 0 1 13.657706478979774,89.65762808278215 L466.96682834395733,95.25435473994445 A974.7058480657565 974.7058480657565 0.01234575268347271 0 0 479,95.32863496404636 L479,145.91693883253336 A1025.2941519342435 1025.2941519342435 0.01234575268347271 0 1 466.3422935210202,145.8388033832312 L13.033171656042628,140.2420767260689 A974.7058480657565 974.7058480657565 0.01234575268347271 0 0 1,140.167796501967 Z" style="fill: rgb(31, 119, 180);"/><title>sR_1 → R_1 : sR_1 to R_1 (47.31%)
a
139k</title><text class="label" dy="0.35em" x="5" y="114.87364456772349"/></g><g class="link" style="opacity: 0.8;"><path d="M1,264.0578743367788 A277.5546158533089 277.5546158533089 0.29678492267851286 0 0 82.17007134095824,251.92365012657942 L379.94682039873425,160.85845421202197 A338.70448502865094 338.70448502865094 0.29678492267851286 0 1 479,146.05085985909676 L479,207.20072903443878 A277.5546158533089 277.5546158533089 0.29678492267851286 0 0 397.82992865904174,219.3349532446382 L100.05317960126571,310.4001491591957 A338.70448502865094 338.70448502865094 0.29678492267851286 0 1 1,325.2077435121208 Z" style="fill: rgb(255, 187, 120);"/><title>sR_4 → R_1 : sR_1 to R_1 (47.31%)
d
168k</title><text class="label" dy="0.35em" x="5" y="294.6328089244498"/></g></g><g class="nodes"><g class="node" transform="translate(479,95.32863496404636)"><title>R_1 : sR_1 to R_1 (47.31%)</title><line x1="0" x2="0" y1="0" y2="118.74100541926188" style="display: inline; stroke: rgb(0, 0, 0);"/><rect class="node-body" width="1" height="118.74100541926188" style="fill: none;"/><text class="node-value" dy=".35em" text-anchor="middle" transform="translate(0.5,59.37050270963094) rotate(-90)" style="display: none;"/><text class="node-title" dy=".35em" text-anchor="start" transform="translate(5,59.37050270963094)" style="display: inline;">R_1 : sR_1 to R_1 (47.31%)</text><rect class="node-click-target" x="-5" y="-5" width="10" height="123.74100541926188" style="fill: none; visibility: hidden; pointer-events: all;"/></g><g class="node" transform="translate(479,236.19464038330824)"><title>R_2 : sR_2 to R_2 (81.63%)</title><line x1="0" x2="0" y1="0" y2="16.260851168293186" style="display: inline; stroke: rgb(0, 0, 0);"/><rect class="node-body" width="1" height="16.260851168293186" style="fill: none;"/><text class="node-value" dy=".35em" text-anchor="middle" transform="translate(0.5,8.130425584146593) rotate(-90)" style="display: none;"/><text class="node-title" dy=".35em" text-anchor="start" transform="translate(5,8.130425584146593)" style="display: inline;">R_2 : sR_2 to R_2 (81.63%)</text><rect class="node-click-target" x="-5" y="-5" width="10" height="21.260851168293186" style="fill: none; visibility: hidden; pointer-events: all;"/></g><g class="node" transform="translate(479,274.5804915516014)"><title>R_3 : sR_3 to R_3 (2.55%)</title><line x1="0" x2="0" y1="0" y2="1" style="display: inline; stroke: rgb(0, 0, 0);"/><rect class="node-body" width="1" height="1" style="fill: none;"/><text class="node-value" dy=".35em" text-anchor="middle" transform="translate(0.5,0.41140684926605786) rotate(0)" style="display: none;"/><text class="node-title" dy=".35em" text-anchor="start" transform="translate(5,0.41140684926605786)" style="display: inline;">R_3 : sR_3 to R_3 (2.55%)</text><rect class="node-click-target" x="-5" y="-5" width="10" height="6" style="fill: none; visibility: hidden; pointer-events: all;"/></g><g class="node" transform="translate(479,297.52830525013354)"><title>R_4 : sR_4 to R_4 (18.46%)</title><line x1="0" x2="0" y1="0" y2="42.74846507703296" style="display: inline; stroke: rgb(0, 0, 0);"/><rect class="node-body" width="1" height="42.74846507703296" style="fill: none;"/><text class="node-value" dy=".35em" text-anchor="middle" transform="translate(0.5,21.37423253851648) rotate(-90)" style="display: none;"/><text class="node-title" dy=".35em" text-anchor="start" transform="translate(5,21.37423253851648)" style="display: inline;">R_4 : sR_4 to R_4 (18.46%)</text><rect class="node-click-target" x="-5" y="-5" width="10" height="47.74846507703296" style="fill: none; visibility: hidden; pointer-events: all;"/></g><g class="node" transform="translate(479,362.4017703271665)"><title>R_5 : sR_5 to R_5 (33.14%)</title><line x1="0" x2="0" y1="0" y2="38.55105985860331" style="display: inline; stroke: rgb(0, 0, 0);"/><rect class="node-body" width="1" height="38.55105985860331" style="fill: none;"/><text class="node-value" dy=".35em" text-anchor="middle" transform="translate(0.5,19.275529929301655) rotate(-90)" style="display: none;"/><text class="node-title" dy=".35em" text-anchor="start" transform="translate(5,19.275529929301655)" style="display: inline;">R_5 : sR_5 to R_5 (33.14%)</text><rect class="node-click-target" x="-5" y="-5" width="10" height="43.55105985860331" style="fill: none; visibility: hidden; pointer-events: all;"/></g><g class="node" transform="translate(479,423.0778301857698)"><title>R_6 : sR_6 to R_6 (32.24%)</title><line x1="0" x2="0" y1="0" y2="59.98934158373703" style="display: inline; stroke: rgb(0, 0, 0);"/><rect class="node-body" width="1" height="59.98934158373703" style="fill: none;"/><text class="node-value" dy=".35em" text-anchor="middle" transform="translate(0.5,29.994670791868515) rotate(-90)" style="display: none;"/><text class="node-title" dy=".35em" text-anchor="start" transform="translate(5,29.994670791868515)" style="display: inline;">R_6 : sR_6 to R_6 (32.24%)</text><rect class="node-click-target" x="-5" y="-5" width="10" height="64.98934158373703" style="fill: none; visibility: hidden; pointer-events: all;"/></g><g class="node" transform="translate(479,527.9027123448886)"><title>R_99 : sR_99 to R_99 (22.07%)</title><line x1="0" x2="0" y1="0" y2="3.0972876551113586" style="display: inline; stroke: rgb(0, 0, 0);"/><rect class="node-body" width="1" height="3.0972876551113586" style="fill: none;"/><text class="node-value" dy=".35em" text-anchor="middle" transform="translate(0.5,1.5486438275556793) rotate(-90)" style="display: none;"/><text class="node-title" dy=".35em" text-anchor="start" transform="translate(5,1.5486438275556793)" style="display: inline;">R_99 : sR_99 to R_99 (22.07%)</text><rect class="node-click-target" x="-5" y="-5" width="10" height="8.097287655111359" style="fill: none; visibility: hidden; pointer-events: all;"/></g><g class="node" transform="translate(479,505.19217176950684)"><title>R_88 : sR_88 to R_88 (99.71%)</title><line x1="0" x2="0" y1="0" y2="1" style="display: inline; stroke: rgb(0, 0, 0);"/><rect class="node-body" width="1" height="1" style="fill: none;"/><text class="node-value" dy=".35em" text-anchor="middle" transform="translate(0.5,0.2927702876908995) rotate(0)" style="display: none;"/><text class="node-title" dy=".35em" text-anchor="start" transform="translate(5,0.2927702876908995)" style="display: inline;">R_88 : sR_88 to R_88 (99.71%)</text><rect class="node-click-target" x="-5" y="-5" width="10" height="6" style="fill: none; visibility: hidden; pointer-events: all;"/></g><g class="node" transform="translate(479,59)"><title>R_0 : sR_0 to R_0 (99.96%)</title><line x1="0" x2="0" y1="0" y2="14.203634964046344" style="display: inline; stroke: rgb(0, 0, 0);"/><rect class="node-body" width="1" height="14.203634964046344" style="fill: none;"/><text class="node-value" dy=".35em" text-anchor="middle" transform="translate(0.5,7.101817482023172) rotate(-90)" style="display: none;"/><text class="node-title" dy=".35em" text-anchor="start" transform="translate(5,7.101817482023172)" style="display: inline;">R_0 : sR_0 to R_0 (99.96%)</text><rect class="node-click-target" x="-5" y="-5" width="10" height="19.203634964046344" style="fill: none; visibility: hidden; pointer-events: all;"/></g><g class="node" transform="translate(0,466.85544923867576)"><title>sR_6</title><line x1="0" x2="0" y1="0" y2="18.754038540537124" style="display: inline; stroke: rgb(0, 0, 0);"/><rect class="node-body" width="1" height="18.754038540537124" style="fill: none;"/><text class="node-value" dy=".35em" text-anchor="middle" transform="translate(0.5,9.377019270268562) rotate(-90)" style="display: none;"/><text class="node-title" dy=".35em" text-anchor="end" transform="translate(-4,9.377019270268562)" style="display: inline;">sR_6</text><rect class="node-click-target" x="-5" y="-5" width="10" height="23.754038540537124" style="fill: none; visibility: hidden; pointer-events: all;"/></g><g class="node" transform="translate(0,59)"><title>sR_0</title><line x1="0" x2="0" y1="0" y2="6.841617661390501" style="display: inline; stroke: rgb(0, 0, 0);"/><rect class="node-body" width="1" height="6.841617661390501" style="fill: none;"/><text class="node-value" dy=".35em" text-anchor="middle" transform="translate(0.5,3.4208088306952504) rotate(-90)" style="display: none;"/><text class="node-title" dy=".35em" text-anchor="end" transform="translate(-4,3.4208088306952504)" style="display: inline;">sR_0</text><rect class="node-click-target" x="-5" y="-5" width="10" height="11.8416176613905" style="fill: none; visibility: hidden; pointer-events: all;"/></g><g class="node" transform="translate(0,261.4908120504252)"><title>sR_4</title><line x1="0" x2="0" y1="0" y2="157.36484844447568" style="display: inline; stroke: rgb(0, 0, 0);"/><rect class="node-body" width="1" height="157.36484844447568" style="fill: none;"/><text class="node-value" dy=".35em" text-anchor="middle" transform="translate(0.5,78.68242422223784) rotate(-90)" style="display: none;"/><text class="node-title" dy=".35em" text-anchor="end" transform="translate(-4,78.68242422223784)" style="display: inline;">sR_4</text><rect class="node-click-target" x="-5" y="-5" width="10" height="162.36484844447568" style="fill: none; visibility: hidden; pointer-events: all;"/></g><g class="node" transform="translate(0,239.1656583422462)"><title>sR_3</title><line x1="0" x2="0" y1="0" y2="1" style="display: inline; stroke: rgb(0, 0, 0);"/><rect class="node-body" width="1" height="1" style="fill: none;"/><text class="node-value" dy=".35em" text-anchor="middle" transform="translate(0.5,0.10007685408949385) rotate(0)" style="display: none;"/><text class="node-title" dy=".35em" text-anchor="end" transform="translate(-4,0.10007685408949385)" style="display: inline;">sR_3</text><rect class="node-click-target" x="-5" y="-5" width="10" height="6" style="fill: none; visibility: hidden; pointer-events: all;"/></g><g class="node" transform="translate(0,530.1127731990175)"><title>sR_99</title><line x1="0" x2="0" y1="0" y2="1" style="display: inline; stroke: rgb(0, 0, 0);"/><rect class="node-body" width="1" height="1" style="fill: none;"/><text class="node-value" dy=".35em" text-anchor="middle" transform="translate(0.5,0.44361340049124465) rotate(0)" style="display: none;"/><text class="node-title" dy=".35em" text-anchor="end" transform="translate(-4,0.44361340049124465)" style="display: inline;">sR_99</text><rect class="node-click-target" x="-5" y="-5" width="10" height="6" style="fill: none; visibility: hidden; pointer-events: all;"/></g><g class="node" transform="translate(0,507.7344877792129)"><title>sR_88</title><line x1="0" x2="0" y1="0" y2="1" style="display: inline; stroke: rgb(0, 0, 0);"/><rect class="node-body" width="1" height="1" style="fill: none;"/><text class="node-value" dy=".35em" text-anchor="middle" transform="translate(0.5,0.12664270990234172) rotate(0)" style="display: none;"/><text class="node-title" dy=".35em" text-anchor="end" transform="translate(-4,0.12664270990234172)" style="display: inline;">sR_88</text><rect class="node-click-target" x="-5" y="-5" width="10" height="6" style="fill: none; visibility: hidden; pointer-events: all;"/></g><g class="node" transform="translate(0,440.98066049490086)"><title>sR_5</title><line x1="0" x2="0" y1="0" y2="3.7497887437749" style="display: inline; stroke: rgb(0, 0, 0);"/><rect class="node-body" width="1" height="3.7497887437749" style="fill: none;"/><text class="node-value" dy=".35em" text-anchor="middle" transform="translate(0.5,1.87489437188745) rotate(-90)" style="display: none;"/><text class="node-title" dy=".35em" text-anchor="end" transform="translate(-4,1.87489437188745)" style="display: inline;">sR_5</text><rect class="node-click-target" x="-5" y="-5" width="10" height="8.7497887437749" style="fill: none; visibility: hidden; pointer-events: all;"/></g><g class="node" transform="translate(0,217.0228264664266)"><title>sR_2</title><line x1="0" x2="0" y1="0" y2="1" style="display: inline; stroke: rgb(0, 0, 0);"/><rect class="node-body" width="1" height="1" style="fill: none;"/><text class="node-value" dy=".35em" text-anchor="middle" transform="translate(0.5,0.008915937909790728) rotate(0)" style="display: none;"/><text class="node-title" dy=".35em" text-anchor="end" transform="translate(-4,0.008915937909790728)" style="display: inline;">sR_2</text><rect class="node-click-target" x="-5" y="-5" width="10" height="6" style="fill: none; visibility: hidden; pointer-events: all;"/></g><g class="node" transform="translate(0,87.9666176613905)"><title>sR_1</title><line x1="0" x2="0" y1="0" y2="106.9312088050361" style="display: inline; stroke: rgb(0, 0, 0);"/><rect class="node-body" width="1" height="106.9312088050361" style="fill: none;"/><text class="node-value" dy=".35em" text-anchor="middle" transform="translate(0.5,53.46560440251805) rotate(-90)" style="display: none;"/><text class="node-title" dy=".35em" text-anchor="end" transform="translate(-4,53.46560440251805)" style="display: inline;">sR_1</text><rect class="node-click-target" x="-5" y="-5" width="10" height="111.9312088050361" style="fill: none; visibility: hidden; pointer-events: all;"/></g></g><g class="slice-titles"/></g></svg>