<?xml version="1.0" standalone="no"?><!DOCTYPE svg PUBLIC "-//W3C//DTD SVG 1.1//EN" "http://www.w3.org/Graphics/SVG/1.1/DTD/svg11.dtd"><svg xmlns="http://www.w3.org/2000/svg" width="800" height="600" viewBox="0 0 800 600"><g class="sankey" transform="translate(60,100)"><g class="groups"><g class="group" transform="translate(0,50)" style="display: inline;"><rect x="-10" y="-20" width="21" height="430" style="fill: rgb(238, 238, 238); stroke: rgb(187, 187, 187); stroke-width: 0.5;"/><text x="-10" y="-25" style="fill: rgb(153, 153, 153);">1st rating by AI</text></g><g class="group" transform="translate(469,50)" style="display: inline;"><rect x="-10" y="-20" width="21" height="430" style="fill: rgb(238, 238, 238); stroke: rgb(187, 187, 187); stroke-width: 0.5;"/><text x="-10" y="-25" style="fill: rgb(153, 153, 153);">Result</text></g></g><g class="links"><g class="link" style="opacity: 0.8;"><path d="M1,183.91764954781917 A278.20305566945075 278.20305566945075 0.32438135453855965 0 0 89.6695636652063,169.40882715479302 L380.3304363347937,71.67148783594871 A278.20305566945075 278.20305566945075 0.32438135453855965 0 1 469,57.162665442922574 L469,57.162665442922574 A278.20305566945075 278.20305566945075 0.32438135453855965 0 0 380.3304363347937,71.67148783594871 L89.6695636652063,169.40882715479302 A278.20305566945075 278.20305566945075 0.32438135453855965 0 1 1,183.91764954781917 Z" style="fill: rgb(174, 199, 232);"/><title>sR_2 → R_0 : sR_0 to R_0 (99.96%)
b
0.00</title><text class="label" dy="0.35em" x="5" y="183.91764954781917"/></g><g class="link" style="opacity: 0.8;"><path d="M1,183.93183609724326 A677.7142345958287 677.7142345958287 0.1278511196257417 0 1 87.41066383360453,189.4632228386762 L382.58933616639547,227.40912566439616 A677.7142345958287 677.7142345958287 0.1278511196257417 0 0 469,232.94051240582908 L469,232.94051240582908 A677.7142345958287 677.7142345958287 0.1278511196257417 0 1 382.58933616639547,227.40912566439616 L87.41066383360453,189.4632228386762 A677.7142345958287 677.7142345958287 0.1278511196257417 0 0 1,183.93183609724326 Z" style="fill: rgb(174, 199, 232);"/><title>sR_2 → R_3 : sR_3 to R_3 (2.55%)
b
0.00</title><text class="label" dy="0.35em" x="5" y="183.93183609724326"/></g><g class="link" style="opacity: 0.8;"><path d="M1,183.9327613069883 A198.91550574038774 198.91550574038774 0.4810937909040309 0 1 93.04796849152255,206.51179912160097 L376.95203150847743,354.7102549180498 A198.91550574038774 198.91550574038774 0.4810937909040309 0 0 469,377.2892927326625 L469,377.2892927326625 A198.91550574038774 198.91550574038774 0.4810937909040309 0 1 376.95203150847743,354.7102549180498 L93.04796849152255,206.51179912160097 A198.91550574038774 198.91550574038774 0.4810937909040309 0 0 1,183.9327613069883 Z" style="fill: rgb(174, 199, 232);"/><title>sR_2 → R_6 : sR_6 to R_6 (32.24%)
b
0.00</title><text class="label" dy="0.35em" x="5" y="183.9327613069883"/></g><g class="link" style="opacity: 0.8;"><path d="M1,183.9327613069883 A171.12822200318183 171.12822200318183 0.5914304525088845 0 1 96.41238179447365,212.99991979776405 L373.5876182055264,399.1589476591551 A171.12822200318183 171.12822200318183 0.5914304525088845 0 0 469,428.22610614993084 L469,428.22610614993084 A171.12822200318183 171.12822200318183 0.5914304525088845 0 1 373.5876182055264,399.1589476591551 L96.41238179447365,212.99991979776405 A171.12822200318183 171.12822200318183 0.5914304525088845 0 0 1,183.9327613069883 Z" style="fill: rgb(174, 199, 232);"/><title>sR_2 → R_88 : sR_88 to R_88 (99.71%)
b
0.00</title><text class="label" dy="0.35em" x="5" y="183.9327613069883"/></g><g class="link" style="opacity: 0.8;"><path d="M1,183.9327613069883 A163.96399327237032 163.96399327237032 0.6322269014806622 0 1 97.89332378848633,215.6247813762592 L372.1066762115137,416.4945688304327 A163.96399327237032 163.96399327237032 0.6322269014806622 0 0 469,448.18658889970357 L469,448.18658889970357 A163.96399327237032 163.96399327237032 0.6322269014806622 0 1 372.1066762115137,416.4945688304327 L97.89332378848633,215.6247813762592 A163.96399327237032 163.96399327237032 0.6322269014806622 0 0 1,183.9327613069883 Z" style="fill: rgb(174, 199, 232);"/><title>sR_2 → R_99 : sR_99 to R_99 (22.07%)
b
0.00</title><text class="label" dy="0.35em" x="5" y="183.9327613069883"/></g><g class="link" style="opacity: 0.8;"><path d="M1,202.6827613069883 A247.59477054426657 247.59477054426657 0.36982942105383687 0 0 90.49471226287109,185.94263524243308 L379.5052877371289,73.9027915074778 A247.59477054426657 247.59477054426657 0.36982942105383687 0 1 469,57.162665442922574 L469,57.162665442922574 A247.59477054426657 247.59477054426657 0.36982942105383687 0 0 379.5052877371289,73.9027915074778 L90.49471226287109,185.94263524243308 A247.59477054426657 247.59477054426657 0.36982942105383687 0 1 1,202.6827613069883 Z" style="fill: rgb(255, 127, 14);"/><title>sR_3 → R_0 : sR_0 to R_0 (99.96%)
c
0.00</title><text class="label" dy="0.35em" x="5" y="202.6827613069883"/></g><g class="link" style="opacity: 0.8;"><path d="M1,202.8523830935807 A179.57992931821386 179.57992931821386 0.5514789909538247 0 1 95.09046091752003,229.47501059764997 L374.90953908247997,401.60347864586157 A179.57992931821386 179.57992931821386 0.5514789909538247 0 0 469,428.22610614993084 L469,428.22610614993084 A179.57992931821386 179.57992931821386 0.5514789909538247 0 1 374.90953908247997,401.60347864586157 L95.09046091752003,229.47501059764997 A179.57992931821386 179.57992931821386 0.5514789909538247 0 0 1,202.8523830935807 Z" style="fill: rgb(255, 127, 14);"/><title>sR_3 → R_88 : sR_88 to R_88 (99.71%)
c
0.00</title><text class="label" dy="0.35em" x="5" y="202.8523830935807"/></g><g class="link" style="opacity: 0.8;"><path d="M1,202.8523830935807 A170.71378507192617 170.71378507192617 0.5935923091402515 0 1 96.48746208966085,232.05524633521355 L373.5125379103391,418.98372565807074 A170.71378507192617 170.71378507192617 0.5935923091402515 0 0 469,448.18658889970357 L469,448.18658889970357 A170.71378507192617 170.71378507192617 0.5935923091402515 0 1 373.5125379103391,418.98372565807074 L96.48746208966085,232.05524633521355 A170.71378507192617 170.71378507192617 0.5935923091402515 0 0 1,202.8523830935807 Z" style="fill: rgb(255, 127, 14);"/><title>sR_3 → R_99 : sR_99 to R_99 (22.07%)
c
0.00</title><text class="label" dy="0.35em" x="5" y="202.8523830935807"/></g><g class="link" style="opacity: 0.8;"><path d="M1,430.28346421967194 A144.42012161578108 144.42012161578108 0.8228701240789602 0 0 106.87451753958482,384.08634430551444 L363.1254824604152,107.87357529992678 A144.42012161578108 144.42012161578108 0.8228701240789602 0 1 469,61.67645538576928 L469,61.67645538576928 A144.42012161578108 144.42012161578108 0.8228701240789602 0 0 363.1254824604152,107.87357529992678 L106.87451753958482,384.08634430551444 A144.42012161578108 144.42012161578108 0.8228701240789602 0 1 1,430.28346421967194 Z" style="fill: rgb(255, 152, 150);"/><title>sR_88 → R_0 : sR_0 to R_0 (99.96%)
j
0.00</title><text class="label" dy="0.35em" x="5" y="430.28346421967194"/></g><g class="link" style="opacity: 0.8;"><path d="M1,430.2840810261686 A184.30975621568862 184.30975621568862 0.5319773760876865 0 0 94.48899429619935,404.8135333887519 L375.51100570380066,239.41063660558578 A184.30975621568862 184.30975621568862 0.5319773760876865 0 1 469,213.9400889681691 L469,213.9400889681691 A184.30975621568862 184.30975621568862 0.5319773760876865 0 0 375.51100570380066,239.41063660558578 L94.48899429619935,404.8135333887519 A184.30975621568862 184.30975621568862 0.5319773760876865 0 1 1,430.2840810261686 Z" style="fill: rgb(255, 152, 150);"/><title>sR_88 → R_2 : sR_2 to R_2 (81.63%)
j
0.00</title><text class="label" dy="0.35em" x="5" y="430.2840810261686"/></g><g class="link" style="opacity: 0.8;"><path d="M1,430.2840810261686 A196.39498914052285 196.39498914052285 0.48903288236007514 0 0 93.26093529008276,407.2641523150664 L376.7390647099172,256.4122518757637 A196.39498914052285 196.39498914052285 0.48903288236007514 0 1 469,233.39232316466143 L469,233.39232316466143 A196.39498914052285 196.39498914052285 0.48903288236007514 0 0 376.7390647099172,256.4122518757637 L93.26093529008276,407.2641523150664 A196.39498914052285 196.39498914052285 0.48903288236007514 0 1 1,430.2840810261686 Z" style="fill: rgb(255, 152, 150);"/><title>sR_88 → R_3 : sR_3 to R_3 (2.55%)
j
0.00</title><text class="label" dy="0.35em" x="5" y="430.2840810261686"/></g><g class="link" style="opacity: 0.8;"><path d="M1,430.2840810261686 A252.7725087578931 252.7725087578931 0.3611984627224176 0 0 90.3286968129,413.97367305710833 L379.67130318709997,304.6682161841826 A252.7725087578931 252.7725087578931 0.3611984627224176 0 1 469,288.3578082151223 L469,288.3578082151223 A252.7725087578931 252.7725087578931 0.3611984627224176 0 0 379.67130318709997,304.6682161841826 L90.3286968129,413.97367305710833 A252.7725087578931 252.7725087578931 0.3611984627224176 0 1 1,430.2840810261686 Z" style="fill: rgb(255, 152, 150);"/><title>sR_88 → R_4 : sR_4 to R_4 (18.46%)
j
0.00</title><text class="label" dy="0.35em" x="5" y="430.2840810261686"/></g><g class="link" style="opacity: 0.8;"><path d="M1,430.2840810261686 A376.5397729395892 376.5397729395892 0.2341886185792017 0 0 88.37749603852717,420.00565438377544 L381.62250396147283,350.04737247074587 A376.5397729395892 376.5397729395892 0.2341886185792017 0 1 469,339.7689458283527 L469,339.7689458283527 A376.5397729395892 376.5397729395892 0.2341886185792017 0 0 381.62250396147283,350.04737247074587 L88.37749603852717,420.00565438377544 A376.5397729395892 376.5397729395892 0.2341886185792017 0 1 1,430.2840810261686 Z" style="fill: rgb(255, 152, 150);"/><title>sR_88 → R_5 : sR_5 to R_5 (33.14%)
j
0.00</title><text class="label" dy="0.35em" x="5" y="430.2840810261686"/></g><g class="link" style="opacity: 0.8;"><path d="M1,430.2840810261686 A1000 1000 0.050400612741012374 0 0 51.379277328787026,429.014238984678 L418.620722671213,410.4893566887945 A1000 1000 0.050400612741012374 0 1 469,409.21951464730387 L469,409.21951464730387 A1000 1000 0.050400612741012374 0 0 418.620722671213,410.4893566887945 L51.379277328787026,429.014238984678 A1000 1000 0.050400612741012374 0 1 1,430.2840810261686 Z" style="fill: rgb(255, 152, 150);"/><title>sR_88 → R_6 : sR_6 to R_6 (32.24%)
j
0.00</title><text class="label" dy="0.35em" x="5" y="430.2840810261686"/></g><g class="link" style="opacity: 0.8;"><path d="M1,430.49811288052337 A1000 1000 0.045762999718315545 0 1 46.74702818078858,431.54505621938773 L423.25297181921144,448.78713571352347 A1000 1000 0.045762999718315545 0 0 469,449.83407905238784 L469,449.83407905238784 A1000 1000 0.045762999718315545 0 1 423.25297181921144,448.78713571352347 L46.74702818078858,431.54505621938773 A1000 1000 0.045762999718315545 0 0 1,430.49811288052337 Z" style="fill: rgb(255, 152, 150);"/><title>sR_88 → R_99 : sR_99 to R_99 (22.07%)
j
0.00</title><text class="label" dy="0.35em" x="5" y="430.49811288052337"/></g><g class="link" style="opacity: 0.8;"><path d="M1,55.795822246236554 A1000 1000 0.061387544008364214 0 1 62.348995489650875,57.67944588904503 L407.65100451034914,78.90335514028165 A1000 1000 0.061387544008364214 0 0 469,80.78697878309012 L469,80.78697878309012 A1000 1000 0.061387544008364214 0 1 407.65100451034914,78.90335514028165 L62.348995489650875,57.67944588904503 A1000 1000 0.061387544008364214 0 0 1,55.795822246236554 Z" style="fill: rgb(148, 103, 189);"/><title>sR_0 → R_1 : sR_1 to R_1 (47.31%)
k
0.00</title><text class="label" dy="0.35em" x="5" y="55.795822246236554"/></g><g class="link" style="opacity: 0.8;"><path d="M1,55.795822246236554 A249.22202845360636 249.22202845360636 0.3670691217417499 0 1 90.44113672135721,72.39819863123185 L379.5588632786428,183.56257309238455 A249.22202845360636 249.22202845360636 0.3670691217417499 0 0 469,200.16494947737985 L469,200.16494947737985 A249.22202845360636 249.22202845360636 0.3670691217417499 0 1 379.5588632786428,183.56257309238455 L90.44113672135721,72.39819863123185 A249.22202845360636 249.22202845360636 0.3670691217417499 0 0 1,55.795822246236554 Z" style="fill: rgb(148, 103, 189);"/><title>sR_0 → R_2 : sR_2 to R_2 (81.63%)
k
0.00</title><text class="label" dy="0.35em" x="5" y="55.795822246236554"/></g><g class="link" style="opacity: 0.8;"><path d="M1,55.795822246236554 A212.2539263282656 212.2539263282656 0.44360701967797533 0 1 92.09941578355536,76.34000524970475 L377.90058421644466,212.15114881992284 A212.2539263282656 212.2539263282656 0.44360701967797533 0 0 469,232.69533182339103 L469,232.69533182339103 A212.2539263282656 212.2539263282656 0.44360701967797533 0 1 377.90058421644466,212.15114881992284 L92.09941578355536,76.34000524970475 A212.2539263282656 212.2539263282656 0.44360701967797533 0 0 1,55.795822246236554 Z" style="fill: rgb(148, 103, 189);"/><title>sR_0 → R_3 : sR_3 to R_3 (2.55%)
k
0.00</title><text class="label" dy="0.35em" x="5" y="55.795822246236554"/></g><g class="link" style="opacity: 0.8;"><path d="M1,55.795822246236554 A196.77635996784923 196.77635996784923 0.4878117463357816 0 1 93.22789823875348,78.74769996644983 L376.7721017612465,229.1907538476965 A196.77635996784923 196.77635996784923 0.4878117463357816 0 0 469,252.14263156790977 L469,252.14263156790977 A196.77635996784923 196.77635996784923 0.4878117463357816 0 1 376.7721017612465,229.1907538476965 L93.22789823875348,78.74769996644983 A196.77635996784923 196.77635996784923 0.4878117463357816 0 0 1,55.795822246236554 Z" style="fill: rgb(148, 103, 189);"/><title>sR_0 → R_4 : sR_4 to R_4 (18.46%)
k
0.00</title><text class="label" dy="0.35em" x="5" y="55.795822246236554"/></g><g class="link" style="opacity: 0.8;"><path d="M1,55.7967474559816 A144.08716113068004 144.08716113068004 0.8289911403589384 0 1 107.22827982760364,102.53575725564309 L362.7717201723964,381.38994932703923 A144.08716113068004 144.08716113068004 0.8289911403589384 0 0 469,428.1289591267007 L469,428.1289591267007 A144.08716113068004 144.08716113068004 0.8289911403589384 0 1 362.7717201723964,381.38994932703923 L107.22827982760364,102.53575725564309 A144.08716113068004 144.08716113068004 0.8289911403589384 0 0 1,55.7967474559816 Z" style="fill: rgb(148, 103, 189);"/><title>sR_0 → R_88 : sR_88 to R_88 (99.71%)
k
0.00</title><text class="label" dy="0.35em" x="5" y="55.7967474559816"/></g><g class="link" style="opacity: 0.8;"><path d="M1,182.93260710536416 A263.4239985334508 263.4239985334508 0.34621507695290865 0 1 90.39027500612923,198.56318010520624 L380.2884048066729,303.1425227202442 A261.4239985334508 261.4239985334508 0.34621507695290865 0 0 469,318.65442336611045 L469,320.65442336611045 A263.4239985334508 263.4239985334508 0.34621507695290865 0 1 379.60972499387077,305.02385036626833 L89.71159519332716,200.44450775123045 A261.4239985334508 261.4239985334508 0.34621507695290865 0 0 1,184.93260710536416 Z" style="fill: rgb(174, 199, 232);"/><title>sR_2 → R_5 : sR_5 to R_5 (33.14%)
b
1.00</title><text class="label" dy="0.35em" x="5" y="183.93260710536416"/></g><g class="link" style="opacity: 0.8;"><path d="M1,448.6319207230946 A183.3674951738819 183.3674951738819 0.5317499565132291 0 0 93.97510239476769,423.3127365842442 L375.01081272277696,257.98781932814427 A185.3674951738819 185.3674951738819 0.5317499565132291 0 1 469,232.39247736628562 L469,234.39247736628562 A183.3674951738819 183.3674951738819 0.5317499565132291 0 0 376.0248976052323,259.711661505136 L94.98918727722302,425.03657876123594 A185.3674951738819 185.3674951738819 0.5317499565132291 0 1 1,450.6319207230946 Z" style="fill: rgb(214, 39, 40);"/><title>sR_99 → R_3 : sR_3 to R_3 (2.55%)
i
1.00</title><text class="label" dy="0.35em" x="5" y="449.6319207230946"/></g><g class="link" style="opacity: 0.8;"><path d="M1,54.79597644786073 A169.42057656131428 169.42057656131428 0.6059601282543933 0 1 97.49374715140067,84.96035557778703 L373.64535589156975,276.312008148621 A167.42057656131428 167.42057656131428 0.6059601282543933 0 0 469,306.12029854668054 L469,308.12029854668054 A169.42057656131428 169.42057656131428 0.6059601282543933 0 1 372.50625284859933,277.9559194167542 L96.35464410843022,86.60426684592028 A167.42057656131428 167.42057656131428 0.6059601282543933 0 0 1,56.79597644786073 Z" style="fill: rgb(148, 103, 189);"/><title>sR_0 → R_5 : sR_5 to R_5 (33.14%)
k
1.00</title><text class="label" dy="0.35em" x="5" y="55.79597644786073"/></g><g class="link" style="opacity: 0.8;"><path d="M1,182.9321445004916 A432.86737993316376 432.86737993316376 0.20291489390408657 0 1 88.23371684281129,191.81314817141018 L382.1693337028606,252.28937525500635 A430.86737993316376 430.86737993316376 0.20291489390408657 0 0 469,261.1293455559709 L469,263.1293455559709 A432.86737993316376 432.86737993316376 0.20291489390408657 0 1 381.7662831571887,254.2483418850523 L87.83066629713939,193.77211480145613 A430.86737993316376 430.86737993316376 0.20291489390408657 0 0 1,184.9321445004916 Z" style="fill: rgb(174, 199, 232);"/><title>sR_2 → R_4 : sR_4 to R_4 (18.46%)
b
2.00</title><text class="label" dy="0.35em" x="5" y="183.9321445004916"/></g><g class="link" style="opacity: 0.8;"><path d="M1,429.2837726229203 A168.33511602689018 168.33511602689018 0.6009429610670733 0 0 96.18012237389733,399.79193368453923 L372.6890366629052,210.23898699973782 A170.33511602689018 170.33511602689018 0.6009429610670733 0 1 469,180.39675368572722 L469,182.39675368572722 A168.33511602689018 168.33511602689018 0.6009429610670733 0 0 373.81987762610265,211.88859262410833 L97.31096333709475,401.4415393089097 A170.33511602689018 170.33511602689018 0.6009429610670733 0 1 1,431.2837726229203 Z" style="fill: rgb(255, 152, 150);"/><title>sR_88 → R_1 : sR_1 to R_1 (47.31%)
j
2.00</title><text class="label" dy="0.35em" x="5" y="430.2837726229203"/></g><g class="link" style="opacity: 0.8;"><path d="M1,54.79643905273325 A154.93092504681698 154.93092504681698 0.7069401164597203 0 1 101.6292198471831,91.92519243531598 L369.66980060101696,320.89138336024394 A152.93092504681698 152.93092504681698 0.7069401164597203 0 0 469,357.5408424589855 L469,359.5408424589855 A154.93092504681698 154.93092504681698 0.7069401164597203 0 1 368.3707801528169,322.4120890764027 L100.33019939898304,93.44589815147481 A152.93092504681698 152.93092504681698 0.7069401164597203 0 0 1,56.79643905273325 Z" style="fill: rgb(148, 103, 189);"/><title>sR_0 → R_6 : sR_6 to R_6 (32.24%)
k
2.00</title><text class="label" dy="0.35em" x="5" y="55.79643905273325"/></g><g class="link" style="opacity: 0.8;"><path d="M1,54.797364262478304 A143.63719777248238 143.63719777248238 0.8598984569974939 0 1 109.84486549546374,104.70921946847217 L361.670687121594,397.1589127169791 A141.63719777248238 141.63719777248238 0.8598984569974939 0 0 469,446.3757967597921 L469,448.3757967597921 A143.63719777248238 143.63719777248238 0.8598984569974939 0 1 360.15513450453625,398.46394155379824 L108.32931287840599,106.01424830529128 A141.63719777248238 141.63719777248238 0.8598984569974939 0 0 1,56.797364262478304 Z" style="fill: rgb(148, 103, 189);"/><title>sR_0 → R_99 : sR_99 to R_99 (22.07%)
k
4.00</title><text class="label" dy="0.35em" x="5" y="55.797364262478304"/></g><g class="link" style="opacity: 0.8;"><path d="M1,182.91857475756422 A553.2433570967224 553.2433570967224 0.15692315988401662 0 0 87.46082580068783,176.12076643355772 L382.226614365772,129.48173066070268 A555.2433570967224 555.2433570967224 0.15692315988401662 0 1 469,122.65934794918007 L469,124.65934794918007 A553.2433570967224 553.2433570967224 0.15692315988401662 0 0 382.53917419931213,131.45715627318657 L87.77338563422803,178.0961920460416 A555.2433570967224 555.2433570967224 0.15692315988401662 0 1 1,184.91857475756422 Z" style="fill: rgb(174, 199, 232);"/><title>sR_2 → R_1 : sR_1 to R_1 (47.31%)
b
6.00</title><text class="label" dy="0.35em" x="5" y="183.91857475756422"/></g><g class="link" style="opacity: 0.8;"><path d="M1,201.8172251232688 A1001 1001 0.0768789783538606 0 1 77.880073372395,204.7739122764489 L392.2735331678096,228.99189154222694 A999 999 0.0768789783538606 0 0 469,231.94267122856752 L469,233.94267122856752 A1001 1001 0.0768789783538606 0 1 392.119926627605,230.98598407538742 L77.72646683219043,206.76800480960938 A999 999 0.0768789783538606 0 0 1,203.8172251232688 Z" style="fill: rgb(255, 127, 14);"/><title>sR_3 → R_3 : sR_3 to R_3 (2.55%)
c
14.0</title><text class="label" dy="0.35em" x="5" y="202.8172251232688"/></g><g class="link" style="opacity: 0.8;"><path d="M1,374.2454966957676 A251.83283012324463 251.83283012324463 0.3611004732441101 0 0 89.97353341360352,358.0044420651776 L379.3198586880533,248.72997827680865 A253.83283012324463 253.83283012324463 0.3611004732441101 0 1 469,232.3599408235847 L469,234.3599408235847 A251.83283012324463 251.83283012324463 0.3611004732441101 0 0 380.0264665863965,250.60099545417472 L90.68014131194673,359.8754592425437 A253.83283012324463 253.83283012324463 0.3611004732441101 0 1 1,376.2454966957676 Z" style="fill: rgb(44, 160, 44);"/><title>sR_5 → R_3 : sR_3 to R_3 (2.55%)
e
14.0</title><text class="label" dy="0.35em" x="5" y="375.2454966957676"/></g><g class="link" style="opacity: 0.8;"><path d="M1,201.8497616659697 A215.50153618259637 215.50153618259637 0.43793617102578253 0 1 92.38801801759304,222.1868998148187 L378.46012459555436,356.14351840750294 A213.50153618259637 213.50153618259637 0.43793617102578253 0 0 469,376.29191416027345 L469,378.29191416027345 A215.50153618259637 215.50153618259637 0.43793617102578253 0 1 377.611981982407,357.9547760114244 L91.53987540444565,223.9981574187402 A213.50153618259637 213.50153618259637 0.43793617102578253 0 0 1,203.8497616659697 Z" style="fill: rgb(255, 127, 14);"/><title>sR_3 → R_6 : sR_6 to R_6 (32.24%)
c
17.0</title><text class="label" dy="0.35em" x="5" y="202.8497616659697"/></g><g class="link" style="opacity: 0.8;"><path d="M1,448.62914509385945 A173.7483446718685 173.7483446718685 0.5734094213958723 0 0 95.25835570655616,420.83918372254254 L373.6566456894621,241.05255926212664 A175.7483446718685 175.7483446718685 0.5734094213958723 0 1 469,212.94271039578007 L469,214.94271039578007 A173.7483446718685 173.7483446718685 0.5734094213958723 0 0 374.7416442934438,242.73267176709697 L96.34335431053788,422.5192962275129 A175.7483446718685 175.7483446718685 0.5734094213958723 0 1 1,450.62914509385945 Z" style="fill: rgb(214, 39, 40);"/><title>sR_99 → R_2 : sR_2 to R_2 (81.63%)
i
17.0</title><text class="label" dy="0.35em" x="5" y="449.62914509385945"/></g><g class="link" style="opacity: 0.8;"><path d="M1,375.87309483893335 A646.8972533592652 646.8972533592652 0.13425149632188194 0 1 87.58627882167544,381.69400896582874 L382.6814183384904,421.55071317631223 A644.8972533592652 644.8972533592652 0.13425149632188194 0 0 469,427.35363089312347 L469,429.35363089312347 A646.8972533592652 646.8972533592652 0.13425149632188194 0 1 382.4137211783245,423.5327167662281 L87.31858166150961,383.6760125557446 A644.8972533592652 644.8972533592652 0.13425149632188194 0 0 1,377.87309483893335 Z" style="fill: rgb(44, 160, 44);"/><title>sR_5 → R_88 : sR_88 to R_88 (99.71%)
e
21.0</title><text class="label" dy="0.35em" x="5" y="376.87309483893335"/></g><g class="link" style="opacity: 0.8;"><path d="M1,448.82976140691096 A999 999 0.05079304487363623 0 0 51.72043603800603,447.5413617043689 L418.1780215475035,428.91184138914434 A1001 1001 0.05079304487363623 0 1 469,427.62086230781847 L469,429.62086230781847 A999 999 0.05079304487363623 0 0 418.279563961994,430.9092620103605 L51.82197845249652,449.5387823255851 A1001 1001 0.05079304487363623 0 1 1,450.82976140691096 Z" style="fill: rgb(214, 39, 40);"/><title>sR_99 → R_88 : sR_88 to R_88 (99.71%)
i
28.0</title><text class="label" dy="0.35em" x="5" y="449.82976140691096"/></g><g class="link" style="opacity: 0.8;"><path d="M1,201.82431839798085 A563.824215973389 563.824215973389 0.15447710863898134 0 1 87.75194217310212,208.538269659615 L382.5557847379293,254.44445291011462 A561.824215973389 561.824215973389 0.15447710863898134 0 0 469,261.1345884111928 L469,263.1345884111928 A563.824215973389 563.824215973389 0.15447710863898134 0 1 382.2480578268979,256.4206371495587 L87.44421526207071,210.51445389905902 A561.824215973389 561.824215973389 0.15447710863898134 0 0 1,203.82431839798085 Z" style="fill: rgb(255, 127, 14);"/><title>sR_3 → R_4 : sR_4 to R_4 (18.46%)
c
32.0</title><text class="label" dy="0.35em" x="5" y="202.82431839798085"/></g><g class="link" style="opacity: 0.8;"><path d="M1,182.92566803227626 A1001 1001 0.04808290913711977 0 1 49.112447985977134,184.08258416921498 L420.98368078122763,201.97702744146852 A999 999 0.04808290913711977 0 0 469,203.13163205765414 L469,205.13163205765414 A1001 1001 0.04808290913711977 0 1 420.8875520140229,203.97471592071543 L49.01631921877239,186.0802726484619 A999 999 0.04808290913711977 0 0 1,184.92566803227626 Z" style="fill: rgb(174, 199, 232);"/><title>sR_2 → R_2 : sR_2 to R_2 (81.63%)
b
40.0</title><text class="label" dy="0.35em" x="5" y="183.92566803227626"/></g><g class="link" style="opacity: 0.8;"><path d="M1,448.63824298968575 A226.9037388623925 226.9037388623925 0.407233937848436 0 0 90.86998919477914,430.0820305149686 L378.3378688189729,306.08374897261285 A228.9037388623925 228.9037388623925 0.407233937848436 0 1 469,287.3639762800893 L469,289.3639762800893 A226.9037388623925 226.9037388623925 0.407233937848436 0 0 379.1300108052209,307.9201887548064 L91.66213118102716,431.9184702971622 A228.9037388623925 228.9037388623925 0.407233937848436 0 1 1,450.63824298968575 Z" style="fill: rgb(214, 39, 40);"/><title>sR_99 → R_4 : sR_4 to R_4 (18.46%)
i
40.0</title><text class="label" dy="0.35em" x="5" y="449.63824298968575"/></g><g class="link" style="opacity: 0.8;"><path d="M1,375.8832721461289 A464.76253151058285 464.76253151058285 0.1884727828681736 0 1 88.0774160092155,384.1135109135986 L382.2973018740278,440.23201075880075 A462.76253151058285 462.76253151058285 0.1884727828681736 0 0 469,448.426832562942 L469,450.426832562942 A464.76253151058285 464.76253151058285 0.1884727828681736 0 1 381.9225839907845,442.1965937954723 L87.70269812597222,386.07809395027016 A462.76253151058285 462.76253151058285 0.1884727828681736 0 0 1,377.8832721461289 Z" style="fill: rgb(44, 160, 44);"/><title>sR_5 → R_99 : sR_99 to R_99 (22.07%)
e
45.0</title><text class="label" dy="0.35em" x="5" y="376.8832721461289"/></g><g class="link" style="opacity: 0.8;"><path d="M1,201.8381965441566 A299.743646196778 299.743646196778 0.2999669543283008 0 1 89.57084139335875,215.22287310629628 L381.0201358801692,305.36815219126163 A297.743646196778 297.743646196778 0.2999669543283008 0 0 469,318.66352126193675 L469,320.66352126193675 A299.743646196778 299.743646196778 0.2999669543283008 0 1 380.42915860664124,307.2788446997971 L88.97986411983074,217.1335656148317 A297.743646196778 297.743646196778 0.2999669543283008 0 0 1,203.8381965441566 Z" style="fill: rgb(255, 127, 14);"/><title>sR_3 → R_5 : sR_5 to R_5 (33.14%)
c
58.0</title><text class="label" dy="0.35em" x="5" y="202.8381965441566"/></g><g class="link" style="opacity: 0.8;"><path d="M1,448.6175799720463 A161.72309430090948 161.72309430090948 0.6401497191741433 0 0 97.59971478016845,416.5974321860521 L371.2056541722654,212.82214089459893 A163.72309430090948 163.72309430090948 0.6401497191741433 0 1 469,180.40600578317773 L469,182.40600578317773 A161.72309430090948 161.72309430090948 0.6401497191741433 0 0 372.4002852198316,214.42615356917196 L98.79434582773462,418.20144486062514 A163.72309430090948 163.72309430090948 0.6401497191741433 0 1 1,450.6175799720463 Z" style="fill: rgb(214, 39, 40);"/><title>sR_99 → R_1 : sR_1 to R_1 (47.31%)
i
58.0</title><text class="label" dy="0.35em" x="5" y="449.6175799720463"/></g><g class="link" style="opacity: 0.8;"><path d="M1,201.80473479171064 A1001 1001 0.0028883237692294284 0 1 3.8912080730522,201.808910167113 L466.1145685664544,203.14396459844693 A999 999 0.0028883237692294284 0 0 469,203.14813163144086 L469,205.14813163144086 A1001 1001 0.0028883237692294284 0 1 466.1087919269478,205.1439562560385 L3.885431433545602,203.80890182470458 A999 999 0.0028883237692294284 0 0 1,203.80473479171064 Z" style="fill: rgb(255, 127, 14);"/><title>sR_3 → R_2 : sR_2 to R_2 (81.63%)
c
67.0</title><text class="label" dy="0.35em" x="5" y="202.80473479171064"/></g><g class="link" style="opacity: 0.8;"><path d="M1,448.655205168345 A314.48892746355347 314.48892746355347 0.2827390067024622 0 0 88.7383054013974,436.1683890591119 L380.70372070674557,351.34596626269587 A316.48892746355347 316.48892746355347 0.2827390067024622 0 1 469,338.7797399420449 L469,340.7797399420449 A314.48892746355347 314.48892746355347 0.2827390067024622 0 0 381.2616945986026,353.266556051278 L89.29627929325447,438.088978847694 A316.48892746355347 316.48892746355347 0.2827390067024622 0 1 1,450.655205168345 Z" style="fill: rgb(214, 39, 40);"/><title>sR_99 → R_5 : sR_5 to R_5 (33.14%)
i
70.0</title><text class="label" dy="0.35em" x="5" y="449.655205168345"/></g><g class="link" style="opacity: 0.8;"><path d="M1,402.20565130448404 A217.92596358944448 217.92596358944448 0.4272387498280015 0 0 91.29965725861867,382.6170203212937 L377.87162407223974,252.14561565351582 A219.92596358944448 219.92596358944448 0.4272387498280015 0 1 469,232.37721140549232 L469,234.37721140549232 A217.92596358944448 217.92596358944448 0.4272387498280015 0 0 378.70034274138135,253.96584238868266 L92.12837592776022,384.4372470564606 A219.92596358944448 219.92596358944448 0.4272387498280015 0 1 1,404.20565130448404 Z" style="fill: rgb(152, 223, 138);"/><title>sR_6 → R_3 : sR_3 to R_3 (2.55%)
f
98.0</title><text class="label" dy="0.35em" x="5" y="403.20565130448404"/></g><g class="link" style="opacity: 0.8;"><path d="M1,410.1103349629361 A1001 1001 0.0403616735862693 0 1 41.39106656512348,410.9255711609015 L428.6896348665751,426.566083613196 A999 999 0.0403616735862693 0 0 469,427.379690967609 L469,429.379690967609 A1001 1001 0.0403616735862693 0 1 428.6089334348765,428.56445476964365 L41.31036513342494,412.92394231734914 A999 999 0.0403616735862693 0 0 1,412.1103349629361 Z" style="fill: rgb(152, 223, 138);"/><title>sR_6 → R_88 : sR_88 to R_88 (99.71%)
f
148</title><text class="label" dy="0.35em" x="5" y="411.1103349629361"/></g><g class="link" style="opacity: 0.8;"><path d="M1,372.74835312665385 A150.66087398483043 150.66087398483043 0.7284925241388251 0 0 101.30180570343573,334.5074361001108 L367.3667032060037,97.12263027147073 A152.66087398483043 152.66087398483043 0.7284925241388251 0 1 469,58.37407093521434 L469,60.37407093521434 A150.66087398483043 150.66087398483043 0.7284925241388251 0 0 368.6981942965643,98.61498796175742 L102.63329679399631,335.99979379039746 A152.66087398483043 152.66087398483043 0.7284925241388251 0 1 1,374.74835312665385 Z" style="fill: rgb(44, 160, 44);"/><title>sR_5 → R_0 : sR_0 to R_0 (99.96%)
e
233</title><text class="label" dy="0.35em" x="5" y="373.74835312665385"/></g><g class="link" style="opacity: 0.8;"><path d="M1,163.3089007027893 A165.0877050081052 165.0877050081052 0.6314528532552732 0 1 98.45425724133732,195.14264483024218 L372.72637892095656,395.72944708096526 A163.0877050081052 163.0877050081052 0.6314528532552732 0 0 469,427.17753263831577 L469,429.17753263831577 A165.0877050081052 165.0877050081052 0.6314528532552732 0 1 371.54574275866264,397.3437885108629 L97.27362107904342,196.75698626013983 A163.0877050081052 163.0877050081052 0.6314528532552732 0 0 1,165.3089007027893 Z" style="fill: rgb(31, 119, 180);"/><title>sR_1 → R_88 : sR_88 to R_88 (99.71%)
a
315</title><text class="label" dy="0.35em" x="5" y="164.3089007027893"/></g><g class="link" style="opacity: 0.8;"><path d="M1,201.73858229493962 A426.6033802131653 426.6033802131653 0.2050186277438859 0 0 87.85021876400688,192.8043097614573 L381.74261044085966,131.69225229565333 A428.6033802131653 428.6033802131653 0.2050186277438859 0 1 469,122.71609414687643 L469,124.71609414687643 A426.6033802131653 426.6033802131653 0.2050186277438859 0 0 382.1497812359931,133.65036668035876 L88.25738955914034,194.76242414616272 A428.6033802131653 428.6033802131653 0.2050186277438859 0 1 1,203.73858229493962 Z" style="fill: rgb(255, 127, 14);"/><title>sR_3 → R_1 : sR_1 to R_1 (47.31%)
c
362</title><text class="label" dy="0.35em" x="5" y="202.73858229493962"/></g><g class="link" style="opacity: 0.8;"><path d="M1,352.66697630352803 A452.4644250883748 452.4644250883748 0.19378632853545152 0 1 88.13366378591292,361.13615298737653 L382.25148766005503,418.85650848889406 A450.4644250883748 450.4644250883748 0.19378632853545152 0 0 469,427.28824940447333 L469,429.28824940447333 A452.4644250883748 452.4644250883748 0.19378632853545152 0 1 381.8663362140871,420.81907272062483 L87.748512339945,363.0987172191073 A450.4644250883748 450.4644250883748 0.19378632853545152 0 0 1,354.66697630352803 Z" style="fill: rgb(255, 187, 120);"/><title>sR_4 → R_88 : sR_88 to R_88 (99.71%)
d
403</title><text class="label" dy="0.35em" x="5" y="353.66697630352803"/></g><g class="link" style="opacity: 0.8;"><path d="M1,374.3207470883649 A383.56441557457 383.56441557457 0.22905252967812606 0 0 88.09018053307018,364.30279629398615 L381.45570966426413,295.90633346238235 A385.56441557457 385.56441557457 0.22905252967812606 0 1 469,285.8361465877647 L469,287.8361465877647 A383.56441557457 383.56441557457 0.22905252967812606 0 0 381.90981946692983,297.85409738214344 L88.54429033573585,366.25056021374724 A385.56441557457 385.56441557457 0.22905252967812606 0 1 1,376.3207470883649 Z" style="fill: rgb(44, 160, 44);"/><title>sR_5 → R_4 : sR_4 to R_4 (18.46%)
e
474</title><text class="label" dy="0.35em" x="5" y="375.3207470883649"/></g><g class="link" style="opacity: 0.8;"><path d="M1,448.7457215217357 A817.3402838790203 817.3402838790203 0.10563132695479172 0 0 87.17627108305514,444.1900277732476 L382.6128589212215,412.8660782415446 A819.3402838790203 819.3402838790203 0.10563132695479172 0 1 469,408.2992368870023 L469,410.2992368870023 A817.3402838790203 817.3402838790203 0.10563132695479172 0 0 382.82372891694484,414.85493063549035 L87.38714107877853,446.17888016719337 A819.3402838790203 819.3402838790203 0.10563132695479172 0 1 1,450.7457215217357 Z" style="fill: rgb(214, 39, 40);"/><title>sR_99 → R_6 : sR_6 to R_6 (32.24%)
i
517</title><text class="label" dy="0.35em" x="5" y="449.7457215217357"/></g><g class="link" style="opacity: 0.8;"><path d="M1,448.91703952619395 A0 0 0 0 0 1,448.91703952619395 L469,448.9170395261939 A0 0 0 0 1 469,448.9170395261939 L469,450.9170395261939 A0 0 0 0 0 469,450.9170395261939 L1,450.91703952619395 A0 0 0 0 1 1,450.91703952619395 Z" style="fill: rgb(214, 39, 40);"/><title>sR_99 → R_99 : sR_99 to R_99 (22.07%)
i
538</title><text class="label" dy="0.35em" x="5" y="449.91703952619395"/></g><g class="link" style="opacity: 0.8;"><path d="M1,374.13724715559687 A226.06542161279688 226.06542161279688 0.40901338327809245 0 0 90.90718740508193,355.48993589452186 L378.29740402014653,230.91814214043228 A228.06542161279688 228.06542161279688 0.40901338327809245 0 1 469,212.10585818138307 L469,214.10585818138307 A226.06542161279688 226.06542161279688 0.40901338327809245 0 0 379.09281259491803,232.75316944245805 L91.70259597985348,357.3249631965476 A228.06542161279688 228.06542161279688 0.40901338327809245 0 1 1,376.13724715559687 Z" style="fill: rgb(44, 160, 44);"/><title>sR_5 → R_2 : sR_2 to R_2 (81.63%)
e
688</title><text class="label" dy="0.35em" x="5" y="375.13724715559687"/></g><g class="link" style="opacity: 0.8;"><path d="M1,429.391096953346 A999 999 0.004055567418857375 0 0 5.051500745154972,429.3828813748757 L464.9403881422421,427.5177607612391 A1001 1001 0.004055567418857375 0 1 469,427.5095287351642 L469,429.5095287351642 A999 999 0.004055567418857375 0 0 464.94849925484505,429.5177443136345 L5.0596118577578855,431.3828649272711 A1001 1001 0.004055567418857375 0 1 1,431.391096953346 Z" style="fill: rgb(255, 152, 150);"/><title>sR_88 → R_88 : sR_88 to R_88 (99.71%)
j
694</title><text class="label" dy="0.35em" x="5" y="430.391096953346"/></g><g class="link" style="opacity: 0.8;"><path d="M1,121.86937302853222 A316.3011368051761 316.3011368051761 0.2829207516269152 0 1 89.2990903267894,134.44418599642842 L381.2592326132965,219.3226207987737 A314.3011368051761 314.3011368051761 0.2829207516269152 0 0 469,231.81792211461004 L469,233.81792211461004 A316.3011368051761 316.3011368051761 0.2829207516269152 0 1 380.7009096732106,221.24310914671383 L88.7407673867035,136.36467434436855 A314.3011368051761 314.3011368051761 0.2829207516269152 0 0 1,123.86937302853222 Z" style="fill: rgb(31, 119, 180);"/><title>sR_1 → R_3 : sR_3 to R_3 (2.55%)
a
795</title><text class="label" dy="0.35em" x="5" y="122.86937302853222"/></g><g class="link" style="opacity: 0.8;"><path d="M1,448.4283745791838 A141.90355701444528 141.90355701444528 0.8535621163956618 0 0 107.942291026278,399.7984252112898 L360.5504558325567,110.17206082003423 A143.90355701444528 143.90355701444528 0.8535621163956618 0 1 469,60.8567170844297 L469,62.8567170844297 A141.90355701444528 141.90355701444528 0.8535621163956618 0 0 362.05770897372196,111.48666645232373 L109.44954416744334,401.1130308435793 A143.90355701444528 143.90355701444528 0.8535621163956618 0 1 1,450.4283745791838 Z" style="fill: rgb(214, 39, 40);"/><title>sR_99 → R_0 : sR_0 to R_0 (99.96%)
i
1.17k</title><text class="label" dy="0.35em" x="5" y="449.4283745791838"/></g><g class="link" style="opacity: 0.8;"><path d="M1,410.3333105114929 A864.527666825691 864.527666825691 0.10005156263733839 0 1 87.35310527576273,414.65679929786165 L382.84666416734325,444.320438525278 A862.527666825691 862.527666825691 0.10005156263733839 0 0 469,448.6339253442088 L469,450.6339253442088 A864.527666825691 864.527666825691 0.10005156263733839 0 1 382.64689472423726,446.3104365578401 L87.15333583265671,416.64679733042374 A862.527666825691 862.527666825691 0.10005156263733839 0 0 1,412.3333105114929 Z" style="fill: rgb(152, 223, 138);"/><title>sR_6 → R_99 : sR_99 to R_99 (22.07%)
f
1.30k</title><text class="label" dy="0.35em" x="5" y="411.3333105114929"/></g><g class="link" style="opacity: 0.8;"><path d="M1,283.64756293585094 A644.704788400766 644.704788400766 0.13429218013361277 0 0 87.31881346255605,277.84286580858986 L382.41340874203877,237.97401045600253 A646.704788400766 646.704788400766 0.13429218013361277 0 1 469,232.15130602607613 L469,234.15130602607613 A644.704788400766 644.704788400766 0.13429218013361277 0 0 382.681186537444,239.95600315333718 L87.58659125796123,279.82485850592457 A646.704788400766 646.704788400766 0.13429218013361277 0 1 1,285.64756293585094 Z" style="fill: rgb(255, 187, 120);"/><title>sR_4 → R_3 : sR_3 to R_3 (2.55%)
d
1.34k</title><text class="label" dy="0.35em" x="5" y="284.64756293585094"/></g><g class="link" style="opacity: 0.8;"><path d="M1,375.6584461780819 A1001 1001 0.06795693537202219 0 1 68.97254625915228,377.9689383954841 L401.16326302408277,400.57841680314215 A999 999 0.06795693537202219 0 0 469,402.8842926524776 L469,404.8842926524776 A1001 1001 0.06795693537202219 0 1 401.0274537408477,402.5738004350754 L68.83673697591722,379.9643220274173 A999 999 0.06795693537202219 0 0 1,377.6584461780819 Z" style="fill: rgb(44, 160, 44);"/><title>sR_5 → R_6 : sR_6 to R_6 (32.24%)
e
1.37k</title><text class="label" dy="0.35em" x="5" y="376.6584461780819"/></g><g class="link" style="opacity: 0.8;"><path d="M1,401.826469510638 A200.98609747016445 200.98609747016445 0.47182177459800045 0 0 92.35014481516929,379.86708071416297 L376.74083564601676,234.7539242251168 A202.98609747016445 202.98609747016445 0.47182177459800045 0 1 469,212.57601893349226 L469,214.57601893349226 A200.98609747016445 200.98609747016445 0.47182177459800045 0 0 377.6498551848307,236.53540772996735 L93.2591643539832,381.64856421901345 A202.98609747016445 202.98609747016445 0.47182177459800045 0 1 1,403.826469510638 Z" style="fill: rgb(152, 223, 138);"/><title>sR_6 → R_2 : sR_2 to R_2 (81.63%)
f
2.36k</title><text class="label" dy="0.35em" x="5" y="402.826469510638"/></g><g class="link" style="opacity: 0.8;"><path d="M1,163.76256188111176 A159.53553160622107 159.53553160622107 0.6693025567866087 0 1 99.98209200919072,198.18162252381956 L371.2587863207039,412.79393143494445 A157.53553160622107 157.53553160622107 0.6693025567866087 0 0 469,446.7815012329962 L469,448.7815012329962 A159.53553160622107 159.53553160622107 0.6693025567866087 0 1 370.0179079908093,414.3624405902885 L98.74121367929607,199.75013167916353 A157.53553160622107 157.53553160622107 0.6693025567866087 0 0 1,165.76256188111176 Z" style="fill: rgb(31, 119, 180);"/><title>sR_1 → R_99 : sR_99 to R_99 (22.07%)
a
2.63k</title><text class="label" dy="0.35em" x="5" y="164.76256188111176"/></g><g class="link" style="opacity: 0.8;"><path d="M1,374.92043720478097 A869.8913662828086 869.8913662828086 0.0991979226604891 0 0 87.14996488919806,370.643981077153 L382.65196448215016,341.23426713743237 A871.8913662828086 871.8913662828086 0.0991979226604891 0 1 469,336.9479788484717 L469,338.9479788484717 A869.8913662828086 869.8913662828086 0.0991979226604891 0 0 382.8500351108019,343.22443497609964 L87.34803551784984,372.6341489158203 A871.8913662828086 871.8913662828086 0.0991979226604891 0 1 1,376.92043720478097 Z" style="fill: rgb(44, 160, 44);"/><title>sR_5 → R_5 : sR_5 to R_5 (33.14%)
e
3.42k</title><text class="label" dy="0.35em" x="5" y="375.92043720478097"/></g><g class="link" style="opacity: 0.8;"><path d="M1,353.3457718531458 A362.9823002403198 362.9823002403198 0.24413765091311257 0 1 88.73995009395344,364.1096009065271 L381.7434891813824,437.09871987649245 A360.9823002403198 360.9823002403198 0.24413765091311257 0 0 469,447.8032411947789 L469,449.8032411947789 A362.9823002403198 362.9823002403198 0.24413765091311257 0 1 381.26004990604656,439.0394121413976 L88.25651081861761,366.0502931714322 A360.9823002403198 360.9823002403198 0.24413765091311257 0 0 1,355.3457718531458 Z" style="fill: rgb(255, 187, 120);"/><title>sR_4 → R_99 : sR_99 to R_99 (22.07%)
d
4.00k</title><text class="label" dy="0.35em" x="5" y="354.3457718531458"/></g><g class="link" style="opacity: 0.8;"><path d="M1,373.4077192716255 A194.49639750571444 194.49639750571444 0.4919390928452021 0 0 92.867636337859,350.3440667022148 L376.1876918068676,198.51809067459135 A196.49639750571444 196.49639750571444 0.4919390928452021 0 1 469,175.2172753313176 L469,177.2172753313176 A194.49639750571444 194.49639750571444 0.4919390928452021 0 0 377.132363662141,200.28092790072833 L93.81230819313241,352.10690392835176 A196.49639750571444 196.49639750571444 0.4919390928452021 0 1 1,375.4077192716255 Z" style="fill: rgb(44, 160, 44);"/><title>sR_5 → R_1 : sR_1 to R_1 (47.31%)
e
4.04k</title><text class="label" dy="0.35em" x="5" y="374.4077192716255"/></g><g class="link" style="opacity: 0.8;"><path d="M1,404.3165173378138 A505.2464765561702 505.2464765561702 0.17219474745242813 0 0 87.57148254445659,396.84446809031874 L382.08582735650685,345.6233886973073 A507.2464765561702 507.2464765561702 0.17219474745242813 0 1 469,338.1217616116908 L469,340.1217616116908 A505.2464765561702 505.2464765561702 0.17219474745242813 0 0 382.4285174555434,347.59381085918585 L87.91417264349315,398.8148902521973 A507.2464765561702 507.2464765561702 0.17219474745242813 0 1 1,406.3165173378138 Z" style="fill: rgb(152, 223, 138);"/><title>sR_6 → R_5 : sR_5 to R_5 (33.14%)
f
4.20k</title><text class="label" dy="0.35em" x="5" y="405.3165173378138"/></g><g class="link" style="opacity: 0.8;"><path d="M1,74.23140266731801 A999 999 0.044221845960623174 0 0 45.16322677086452,73.25475379753343 L424.7483583607253,56.4578479673567 A1001 1001 0.044221845960623174 0 1 469,55.479243844579564 L469,57.479243844579564 A999 999 0.044221845960623174 0 0 424.8367732291355,58.45589271436414 L45.25164163927466,75.25279854454087 A1001 1001 0.044221845960623174 0 1 1,76.23140266731801 Z" style="fill: rgb(31, 119, 180);"/><title>sR_1 → R_0 : sR_0 to R_0 (99.96%)
a
4.43k</title><text class="label" dy="0.35em" x="5" y="75.23140266731801"/></g><g class="link" style="opacity: 0.8;"><path d="M1,402.94504809240254 A298.9088495493241 298.9088495493241 0.2986971594362684 0 0 88.9614928911618,389.7095716587025 L380.4499564986854,299.95755823219605 A300.9088495493241 300.9088495493241 0.2986971594362684 0 1 469,286.63352318637294 L469,288.63352318637294 A298.9088495493241 298.9088495493241 0.2986971594362684 0 0 381.0385071088382,301.868999620073 L89.55004350131459,391.62101304657944 A300.9088495493241 300.9088495493241 0.2986971594362684 0 1 1,404.94504809240254 Z" style="fill: rgb(152, 223, 138);"/><title>sR_6 → R_4 : sR_4 to R_4 (18.46%)
f
4.70k</title><text class="label" dy="0.35em" x="5" y="403.94504809240254"/></g><g class="link" style="opacity: 0.8;"><path d="M1,221.60238309358067 A223.36936759608886 223.36936759608886 0.4146622765030563 0 0 90.99124092997185,202.67237309812714 L378.1323012405455,76.27704177560236 A225.54484410994792 225.54484410994792 0.4146622765030563 0 1 469,57.162665442922574 L469,59.3381419567816 A223.36936759608886 223.36936759608886 0.4146622765030563 0 0 379.00875907002813,78.26815195223517 L91.86769875945451,204.66348327475993 A225.54484410994792 225.54484410994792 0.4146622765030563 0 1 1,223.77785960743972 Z" style="fill: rgb(255, 187, 120);"/><title>sR_4 → R_0 : sR_0 to R_0 (99.96%)
d
7.05k</title><text class="label" dy="0.35em" x="5" y="222.6901213505102"/></g><g class="link" style="opacity: 0.8;"><path d="M1,395.6402112192167 A147.0129280057834 147.0129280057834 0.7677284073347374 0 0 103.1008671057519,354.401637085661 L365.3250735778378,101.28433712787447 A149.27938347790558 149.27938347790558 0.7677284073347374 0 1 469,59.409999913647084 L469,61.67645538576929 A147.0129280057834 147.0129280057834 0.7677284073347374 0 0 366.8991328942481,102.91502951932503 L104.67492642216216,356.03232947711155 A149.27938347790558 149.27938347790558 0.7677284073347374 0 1 1,397.9066666913389 Z" style="fill: rgb(152, 223, 138);"/><title>sR_6 → R_0 : sR_0 to R_0 (99.96%)
f
7.35k</title><text class="label" dy="0.35em" x="5" y="396.7734389552778"/></g><g class="link" style="opacity: 0.8;"><path d="M1,118.78626822200592 A417.89967180572904 417.89967180572904 0.2110183375648662 0 1 88.53149219437049,128.05606646296133 L382.2980603723601,190.98300287394463 A413.93915729042175 413.93915729042175 0.2110183375648662 0 0 469,200.16494947737985 L469,204.12546399268714 A417.89967180572904 417.89967180572904 0.2110183375648662 0 1 381.4685078056295,194.85566575173172 L87.70193962763992,131.92872934074842 A413.93915729042175 413.93915729042175 0.2110183375648662 0 0 1,122.74678273731321 Z" style="fill: rgb(31, 119, 180);"/><title>sR_1 → R_2 : sR_2 to R_2 (81.63%)
a
12.8k</title><text class="label" dy="0.35em" x="5" y="120.76652547965956"/></g><g class="link" style="opacity: 0.8;"><path d="M1,397.9066666913389 A179.49649846692492 179.49649846692492 0.5422101298565758 0 0 93.62564666830617,372.16153420587403 L374.02345680263755,203.2392724602373 A184.05223125154717 184.05223125154717 0.5422101298565758 0 1 469,176.8407124978566 L469,181.39644528247885 A179.49649846692492 179.49649846692492 0.5422101298565758 0 0 376.37435333169384,207.1415777679437 L95.9765431973624,376.0638395135805 A184.05223125154717 184.05223125154717 0.5422101298565758 0 1 1,402.46239947596115 Z" style="fill: rgb(152, 223, 138);"/><title>sR_6 → R_1 : sR_1 to R_1 (47.31%)
f
14.8k</title><text class="label" dy="0.35em" x="5" y="400.18453308365"/></g><g class="link" style="opacity: 0.8;"><path d="M1,405.96370155447573 A997.4380942159588 997.4380942159588 0.0040260632250412876 0 0 5.015737981717585,405.9556177360516 L464.9636332846854,404.10382842399446 A1002.5619057840412 1002.5619057840412 0.0040260632250412876 0 1 469,404.0957030792214 L469,409.21951464730387 A997.4380942159588 997.4380942159588 0.0040260632250412876 0 0 464.98426201828244,409.227598465728 L5.036366715314617,411.07938777778514 A1002.5619057840412 1002.5619057840412 0.0040260632250412876 0 1 1,411.0875131225582 Z" style="fill: rgb(152, 223, 138);"/><title>sR_6 → R_6 : sR_6 to R_6 (32.24%)
f
16.6k</title><text class="label" dy="0.35em" x="5" y="408.525607338517"/></g><g class="link" style="opacity: 0.8;"><path d="M1,50 A0 0 0 0 0 1,50 L469,50 A0 0 0 0 0 469,50 L469,55.795822246236554 A0 0 0 0 0 469,55.795822246236554 L1,55.795822246236554 A0 0 0 0 0 1,55.795822246236554 Z" style="fill: rgb(148, 103, 189);"/><title>sR_0 → R_0 : sR_0 to R_0 (99.96%)
k
18.8k</title><text class="label" dy="0.35em" x="5" y="52.89791112311828"/></g><g class="link" style="opacity: 0.8;"><path d="M1,275.5997826373906 A466.1638717014663 466.1638717014663 0.18565112410520968 0 0 87.04756122206852,267.5893486480466 L381.3204532868661,212.32082371371786 A475.0051760251565 475.0051760251565 0.18565112410520968 0 1 469,204.15846314026058 L469,212.99976746395075 A466.1638717014663 466.1638717014663 0.18565112410520968 0 0 382.9524387779315,221.01020145329477 L88.67954671313394,276.2787263876235 A475.0051760251565 475.0051760251565 0.18565112410520968 0 1 1,284.4410869610808 Z" style="fill: rgb(255, 187, 120);"/><title>sR_4 → R_2 : sR_2 to R_2 (81.63%)
d
28.7k</title><text class="label" dy="0.35em" x="5" y="280.0204347992357"/></g><g class="link" style="opacity: 0.8;"><path d="M1,122.99196331975122 A278.7477620673715 278.7477620673715 0.33023499975663806 0 1 91.38823760845635,138.0537732402456 L381.85000758554924,237.62042541532324 A268.7613564825588 268.7613564825588 0.33023499975663806 0 0 469,252.14263156790977 L469,262.1290371527225 A278.7477620673715 278.7477620673715 0.33023499975663806 0 1 378.61176239154366,247.0672272322282 L88.14999241445081,147.50057505715054 A268.7613564825588 268.7613564825588 0.33023499975663806 0 0 1,132.97836890456398 Z" style="fill: rgb(31, 119, 180);"/><title>sR_1 → R_4 : sR_4 to R_4 (18.46%)
a
32.4k</title><text class="label" dy="0.35em" x="5" y="127.9851661121576"/></g><g class="link" style="opacity: 0.8;"><path d="M1,132.97836890456398 A221.04795928577045 221.04795928577045 0.4372424194519684 0 1 94.60119403996627,153.7739454861673 L380.7061618217345,287.5040227192624 A208.5141428695889 208.5141428695889 0.4372424194519684 0 0 469,307.12045274830473 L469,319.6542691644863 A221.04795928577045 221.04795928577045 0.4372424194519684 0 1 375.3988059600337,298.85869258288295 L89.29383817826552,165.12861534978782 A208.5141428695889 208.5141428695889 0.4372424194519684 0 0 1,145.51218532074552 Z" style="fill: rgb(31, 119, 180);"/><title>sR_1 → R_5 : sR_5 to R_5 (33.14%)
a
40.6k</title><text class="label" dy="0.35em" x="5" y="139.24527711265475"/></g><g class="link" style="opacity: 0.8;"><path d="M1,309.4775710653605 A1008.8744576728877 1008.8744576728877 0.022900816016835357 0 1 24.102028915958513,309.7421102837797 L446.30440020158585,319.4125797203413 A991.1255423271123 991.1255423271123 0.022900816016835357 0 0 469,319.6724649561389 L469,337.4213803019145 A1008.8744576728877 1008.8744576728877 0.022900816016835357 0 1 445.8979710840415,337.1568410834953 L23.695599798414186,327.4863716469337 A991.1255423271123 991.1255423271123 0.022900816016835357 0 0 1,327.2264864111361 Z" style="fill: rgb(255, 187, 120);"/><title>sR_4 → R_5 : sR_5 to R_5 (33.14%)
d
57.6k</title><text class="label" dy="0.35em" x="5" y="318.3520287382483"/></g><g class="link" style="opacity: 0.8;"><path d="M1,145.51218532074552 A195.54969697338987 195.54969697338987 0.5247483636900698 0 1 98.96946773551058,171.82338969270222 L380.42326213573887,334.75250827371167 A176.80155510296117 176.80155510296117 0.5247483636900698 0 0 469,358.5411508622338 L469,377.28929273266243 A195.54969697338987 195.54969697338987 0.5247483636900698 0 1 371.0305322644894,350.9780883607058 L89.57673786426112,188.04896977969634 A176.80155510296117 176.80155510296117 0.5247483636900698 0 0 1,164.2603271911742 Z" style="fill: rgb(31, 119, 180);"/><title>sR_1 → R_6 : sR_6 to R_6 (32.24%)
a
60.8k</title><text class="label" dy="0.35em" x="5" y="154.88625625595986"/></g><g class="link" style="opacity: 0.8;"><path d="M1,284.85403891062106 A987.6882339226303 987.6882339226303 0.05493693688404511 0 0 55.233276615530485,283.3639590811465 L413.41466229400197,263.6667510835339 A1012.3117660773697 1012.3117660773697 0.05493693688404511 0 1 469,262.13952286316635 L469,286.7630550179058 A987.6882339226303 987.6882339226303 0.05493693688404511 0 0 414.76672338446957,288.25313484738035 L56.58533770599803,307.950342844993 A1012.3117660773697 1012.3117660773697 0.05493693688404511 0 1 1,309.4775710653605 Z" style="fill: rgb(255, 187, 120);"/><title>sR_4 → R_4 : sR_4 to R_4 (18.46%)
d
79.8k</title><text class="label" dy="0.35em" x="5" y="297.1658049879908"/></g><g class="link" style="opacity: 0.8;"><path d="M1,327.2264864111361 A676.8783319467923 676.8783319467923 0.13059498907025513 0 1 89.14586355144537,332.9903847492912 L384.28923258579573,371.7552597574582 A650.4999853089428 650.4999853089428 0.13059498907025513 0 0 469,377.2945355878844 L469,403.67288222573393 A676.8783319467923 676.8783319467923 0.13059498907025513 0 1 380.85413644855464,397.9089838875788 L85.71076741420431,359.1441088794118 A650.4999853089428 650.4999853089428 0.13059498907025513 0 0 1,353.6048330489856 Z" style="fill: rgb(255, 187, 120);"/><title>sR_4 → R_6 : sR_6 to R_6 (32.24%)
d
85.5k</title><text class="label" dy="0.35em" x="5" y="340.41565973006084"/></g><g class="link" style="opacity: 0.8;"><path d="M1,75.91482426566101 A1021.4357219781724 1021.4357219781724 0.010652672486859416 0 1 11.880814418449326,75.97277968991945 L458.5758723955154,80.73145584936398 A978.5642780218276 978.5642780218276 0.010652672486859416 0 0 469,80.78697878309012 L469,123.65842273943503 A1021.4357219781724 1021.4357219781724 0.010652672486859416 0 1 458.1191855815507,123.60046731517659 L11.424127604484632,118.84179115573205 A978.5642780218276 978.5642780218276 0.010652672486859416 0 0 1,118.78626822200592 Z" style="fill: rgb(31, 119, 180);"/><title>sR_1 → R_1 : sR_1 to R_1 (47.31%)
a
139k</title><text class="label" dy="0.35em" x="5" y="97.35054624383346"/></g><g class="link" style="opacity: 0.8;"><path d="M1,223.7778596074397 A317.6064015842465 317.6064015842465 0.25808716458885694 0 0 82.06317026840253,213.25872372030676 L374.71024062867394,136.00739504892448 A369.4283246141974 369.4283246141974 0.25808716458885694 0 1 469,123.77191513482774 L469,175.59383816477862 A317.6064015842465 317.6064015842465 0.25808716458885694 0 0 387.93682973159747,186.11297405191152 L95.28975937132608,263.36430272329386 A369.4283246141974 369.4283246141974 0.25808716458885694 0 1 1,275.5997826373906 Z" style="fill: rgb(255, 187, 120);"/><title>sR_4 → R_1 : sR_1 to R_1 (47.31%)
d
168k</title><text class="label" dy="0.35em" x="5" y="249.68882112241513"/></g></g><g class="nodes"><g class="node" transform="translate(469,80.78697878309012)"><title>R_1 : sR_1 to R_1 (47.31%)</title><line x1="0" x2="0" y1="0" y2="100.62797069428973" style="display: inline; stroke: rgb(0, 0, 0);"/><rect class="node-body" width="1" height="100.62797069428973" style="fill: none;"/><text class="node-value" dy=".35em" text-anchor="middle" transform="translate(0.5,50.313985347144865) rotate(-90)" style="display: none;"/><text class="node-title" dy=".35em" text-anchor="start" transform="translate(5,50.313985347144865)" style="display: inline;">R_1 : sR_1 to R_1 (47.31%)</text><rect class="node-click-target" x="-5" y="-5" width="10" height="105.62797069428973" style="fill: none; visibility: hidden; pointer-events: all;"/></g><g class="node" transform="translate(469,200.16494947737985)"><title>R_2 : sR_2 to R_2 (81.63%)</title><line x1="0" x2="0" y1="0" y2="13.78038234601118" style="display: inline; stroke: rgb(0, 0, 0);"/><rect class="node-body" width="1" height="13.78038234601118" style="fill: none;"/><text class="node-value" dy=".35em" text-anchor="middle" transform="translate(0.5,6.89019117300559) rotate(-90)" style="display: none;"/><text class="node-title" dy=".35em" text-anchor="start" transform="translate(5,6.89019117300559)" style="display: inline;">R_2 : sR_2 to R_2 (81.63%)</text><rect class="node-click-target" x="-5" y="-5" width="10" height="18.78038234601118" style="fill: none; visibility: hidden; pointer-events: all;"/></g><g class="node" transform="translate(469,232.69533182339103)"><title>R_3 : sR_3 to R_3 (2.55%)</title><line x1="0" x2="0" y1="0" y2="1" style="display: inline; stroke: rgb(0, 0, 0);"/><rect class="node-body" width="1" height="1" style="fill: none;"/><text class="node-value" dy=".35em" text-anchor="middle" transform="translate(0.5,0.3486498722593723) rotate(0)" style="display: none;"/><text class="node-title" dy=".35em" text-anchor="start" transform="translate(5,0.3486498722593723)" style="display: inline;">R_3 : sR_3 to R_3 (2.55%)</text><rect class="node-click-target" x="-5" y="-5" width="10" height="6" style="fill: none; visibility: hidden; pointer-events: all;"/></g><g class="node" transform="translate(469,252.14263156790977)"><title>R_4 : sR_4 to R_4 (18.46%)</title><line x1="0" x2="0" y1="0" y2="36.227512777146586" style="display: inline; stroke: rgb(0, 0, 0);"/><rect class="node-body" width="1" height="36.227512777146586" style="fill: none;"/><text class="node-value" dy=".35em" text-anchor="middle" transform="translate(0.5,18.113756388573293) rotate(-90)" style="display: none;"/><text class="node-title" dy=".35em" text-anchor="start" transform="translate(5,18.113756388573293)" style="display: inline;">R_4 : sR_4 to R_4 (18.46%)</text><rect class="node-click-target" x="-5" y="-5" width="10" height="41.227512777146586" style="fill: none; visibility: hidden; pointer-events: all;"/></g><g class="node" transform="translate(469,307.12014434505636)"><title>R_5 : sR_5 to R_5 (33.14%)</title><line x1="0" x2="0" y1="0" y2="32.67038971068075" style="display: inline; stroke: rgb(0, 0, 0);"/><rect class="node-body" width="1" height="32.67038971068075" style="fill: none;"/><text class="node-value" dy=".35em" text-anchor="middle" transform="translate(0.5,16.335194855340376) rotate(-90)" style="display: none;"/><text class="node-title" dy=".35em" text-anchor="start" transform="translate(5,16.335194855340376)" style="display: inline;">R_5 : sR_5 to R_5 (33.14%)</text><rect class="node-click-target" x="-5" y="-5" width="10" height="37.67038971068075" style="fill: none; visibility: hidden; pointer-events: all;"/></g><g class="node" transform="translate(469,358.5405340557371)"><title>R_6 : sR_6 to R_6 (32.24%)</title><line x1="0" x2="0" y1="0" y2="50.83842507096358" style="display: inline; stroke: rgb(0, 0, 0);"/><rect class="node-body" width="1" height="50.83842507096358" style="fill: none;"/><text class="node-value" dy=".35em" text-anchor="middle" transform="translate(0.5,25.41921253548179) rotate(-90)" style="display: none;"/><text class="node-title" dy=".35em" text-anchor="start" transform="translate(5,25.41921253548179)" style="display: inline;">R_6 : sR_6 to R_6 (32.24%)</text><rect class="node-click-target" x="-5" y="-5" width="10" height="55.83842507096358" style="fill: none; visibility: hidden; pointer-events: all;"/></g><g class="node" transform="translate(469,447.3751799532954)"><title>R_99 : sR_99 to R_99 (22.07%)</title><line x1="0" x2="0" y1="0" y2="2.624820046704599" style="display: inline; stroke: rgb(0, 0, 0);"/><rect class="node-body" width="1" height="2.624820046704599" style="fill: none;"/><text class="node-value" dy=".35em" text-anchor="middle" transform="translate(0.5,1.3124100233522995) rotate(-90)" style="display: none;"/><text class="node-title" dy=".35em" text-anchor="start" transform="translate(5,1.3124100233522995)" style="display: inline;">R_99 : sR_99 to R_99 (22.07%)</text><rect class="node-click-target" x="-5" y="-5" width="10" height="7.624820046704599" style="fill: none; visibility: hidden; pointer-events: all;"/></g><g class="node" transform="translate(469,428.1289591267007)"><title>R_88 : sR_88 to R_88 (99.71%)</title><line x1="0" x2="0" y1="0" y2="1" style="display: inline; stroke: rgb(0, 0, 0);"/><rect class="node-body" width="1" height="1" style="fill: none;"/><text class="node-value" dy=".35em" text-anchor="middle" transform="translate(0.5,0.24811041329735417) rotate(0)" style="display: none;"/><text class="node-title" dy=".35em" text-anchor="start" transform="translate(5,0.24811041329735417)" style="display: inline;">R_88 : sR_88 to R_88 (99.71%)</text><rect class="node-click-target" x="-5" y="-5" width="10" height="6" style="fill: none; visibility: hidden; pointer-events: all;"/></g><g class="node" transform="translate(469,50)"><title>R_0 : sR_0 to R_0 (99.96%)</title><line x1="0" x2="0" y1="0" y2="12.036978783090127" style="display: inline; stroke: rgb(0, 0, 0);"/><rect class="node-body" width="1" height="12.036978783090127" style="fill: none;"/><text class="node-value" dy=".35em" text-anchor="middle" transform="translate(0.5,6.018489391545064) rotate(-90)" style="display: none;"/><text class="node-title" dy=".35em" text-anchor="start" transform="translate(5,6.018489391545064)" style="display: inline;">R_0 : sR_0 to R_0 (99.96%)</text><rect class="node-click-target" x="-5" y="-5" width="10" height="17.036978783090127" style="fill: none; visibility: hidden; pointer-events: all;"/></g><g class="node" transform="translate(0,395.6402112192167)"><title>sR_6</title><line x1="0" x2="0" y1="0" y2="15.893253000455218" style="display: inline; stroke: rgb(0, 0, 0);"/><rect class="node-body" width="1" height="15.893253000455218" style="fill: none;"/><text class="node-value" dy=".35em" text-anchor="middle" transform="translate(0.5,7.946626500227609) rotate(-90)" style="display: none;"/><text class="node-title" dy=".35em" text-anchor="end" transform="translate(-4,7.946626500227609)" style="display: inline;">sR_6</text><rect class="node-click-target" x="-5" y="-5" width="10" height="20.893253000455218" style="fill: none; visibility: hidden; pointer-events: all;"/></g><g class="node" transform="translate(0,202.6827613069883)"><title>sR_3</title><line x1="0" x2="0" y1="0" y2="1" style="display: inline; stroke: rgb(0, 0, 0);"/><rect class="node-body" width="1" height="1" style="fill: none;"/><text class="node-value" dy=".35em" text-anchor="middle" transform="translate(0.5,0.0848108932961793) rotate(0)" style="display: none;"/><text class="node-title" dy=".35em" text-anchor="end" transform="translate(-4,0.0848108932961793)" style="display: inline;">sR_3</text><rect class="node-click-target" x="-5" y="-5" width="10" height="6" style="fill: none; visibility: hidden; pointer-events: all;"/></g><g class="node" transform="translate(0,74.54798106897499)"><title>sR_1</title><line x1="0" x2="0" y1="0" y2="90.61966847884418" style="display: inline; stroke: rgb(0, 0, 0);"/><rect class="node-body" width="1" height="90.61966847884418" style="fill: none;"/><text class="node-value" dy=".35em" text-anchor="middle" transform="translate(0.5,45.30983423942209) rotate(-90)" style="display: none;"/><text class="node-title" dy=".35em" text-anchor="end" transform="translate(-4,45.30983423942209)" style="display: inline;">sR_1</text><rect class="node-click-target" x="-5" y="-5" width="10" height="95.61966847884418" style="fill: none; visibility: hidden; pointer-events: all;"/></g><g class="node" transform="translate(0,373.7124241482211)"><title>sR_5</title><line x1="0" x2="0" y1="0" y2="3.1777870709956346" style="display: inline; stroke: rgb(0, 0, 0);"/><rect class="node-body" width="1" height="3.1777870709956346" style="fill: none;"/><text class="node-value" dy=".35em" text-anchor="middle" transform="translate(0.5,1.5888935354978173) rotate(-90)" style="display: none;"/><text class="node-title" dy=".35em" text-anchor="end" transform="translate(-4,1.5888935354978173)" style="display: inline;">sR_5</text><rect class="node-click-target" x="-5" y="-5" width="10" height="8.177787070995635" style="fill: none; visibility: hidden; pointer-events: all;"/></g><g class="node" transform="translate(0,183.91764954781917)"><title>sR_2</title><line x1="0" x2="0" y1="0" y2="1" style="display: inline; stroke: rgb(0, 0, 0);"/><rect class="node-body" width="1" height="1" style="fill: none;"/><text class="node-value" dy=".35em" text-anchor="middle" transform="translate(0.5,0.007555879584572267) rotate(0)" style="display: none;"/><text class="node-title" dy=".35em" text-anchor="end" transform="translate(-4,0.007555879584572267)" style="display: inline;">sR_2</text><rect class="node-click-target" x="-5" y="-5" width="10" height="6" style="fill: none; visibility: hidden; pointer-events: all;"/></g><g class="node" transform="translate(0,221.60238309358067)"><title>sR_4</title><line x1="0" x2="0" y1="0" y2="133.36004105464042" style="display: inline; stroke: rgb(0, 0, 0);"/><rect class="node-body" width="1" height="133.36004105464042" style="fill: none;"/><text class="node-value" dy=".35em" text-anchor="middle" transform="translate(0.5,66.68002052732021) rotate(-90)" style="display: none;"/><text class="node-title" dy=".35em" text-anchor="end" transform="translate(-4,66.68002052732021)" style="display: inline;">sR_4</text><rect class="node-click-target" x="-5" y="-5" width="10" height="138.36004105464042" style="fill: none; visibility: hidden; pointer-events: all;"/></g><g class="node" transform="translate(0,50)"><title>sR_0</title><line x1="0" x2="0" y1="0" y2="5.797981068975005" style="display: inline; stroke: rgb(0, 0, 0);"/><rect class="node-body" width="1" height="5.797981068975005" style="fill: none;"/><text class="node-value" dy=".35em" text-anchor="middle" transform="translate(0.5,2.8989905344875027) rotate(-90)" style="display: none;"/><text class="node-title" dy=".35em" text-anchor="end" transform="translate(-4,2.8989905344875027)" style="display: inline;">sR_0</text><rect class="node-click-target" x="-5" y="-5" width="10" height="10.797981068975005" style="fill: none; visibility: hidden; pointer-events: all;"/></g><g class="node" transform="translate(0,430.28346421967194)"><title>sR_88</title><line x1="0" x2="0" y1="0" y2="1" style="display: inline; stroke: rgb(0, 0, 0);"/><rect class="node-body" width="1" height="1" style="fill: none;"/><text class="node-value" dy=".35em" text-anchor="middle" transform="translate(0.5,0.10732433042571188) rotate(0)" style="display: none;"/><text class="node-title" dy=".35em" text-anchor="end" transform="translate(-4,0.10732433042571188)" style="display: inline;">sR_88</text><rect class="node-click-target" x="-5" y="-5" width="10" height="6" style="fill: none; visibility: hidden; pointer-events: all;"/></g><g class="node" transform="translate(0,449.24811288052337)"><title>sR_99</title><line x1="0" x2="0" y1="0" y2="1" style="display: inline; stroke: rgb(0, 0, 0);"/><rect class="node-body" width="1" height="1" style="fill: none;"/><text class="node-value" dy=".35em" text-anchor="middle" transform="translate(0.5,0.3759435597383174) rotate(0)" style="display: none;"/><text class="node-title" dy=".35em" text-anchor="end" transform="translate(-4,0.3759435597383174)" style="display: inline;">sR_99</text><rect class="node-click-target" x="-5" y="-5" width="10" height="6" style="fill: none; visibility: hidden; pointer-events: all;"/></g></g><g class="slice-titles"/></g></svg>